<?xml version="1.0" encoding="UTF-8"?>
<svg id="_图层_1" data-name="图层_1" xmlns="http://www.w3.org/2000/svg" xmlns:xlink="http://www.w3.org/1999/xlink" version="1.1" viewBox="0 0 200 200">
  <!-- Generator: Adobe Illustrator 29.1.0, SVG Export Plug-In . SVG Version: 2.1.0 Build 142)  -->
  <defs>
    <style>
      .st0 {
        mask: url(#mask);
      }

      .st1, .st2, .st3, .st4, .st5 {
        fill-rule: evenodd;
      }

      .st1, .st6 {
        fill: #fff;
      }

      .st2, .st7 {
        fill: #009853;
      }

      .st3, .st8, .st9 {
        fill: #0e1b20;
      }

      .st4, .st10 {
        fill: #b2b8c7;
      }

      .st11 {
        mask: url(#mask-3);
      }

      .st12 {
        mask: url(#mask-1);
      }

      .st5 {
        fill: #0a4a23;
      }

      .st13 {
        fill: none;
        stroke-linecap: round;
        stroke-width: 8px;
      }

      .st13, .st9, .st10 {
        stroke: #0e1b20;
      }

      .st14 {
        mask: url(#mask-21);
      }

      .st9 {
        stroke-width: 7px;
      }

      .st10 {
        stroke-width: 10px;
      }
    </style>
    <mask id="mask" x="11" y="23.2" width="729.5" height="146" maskUnits="userSpaceOnUse">
      <g id="mask-2">
        <rect id="path-1" class="st6" x="17.7" y="26.9" width="722.8" height="138.6"/>
      </g>
    </mask>
    <mask id="mask-1" x="21.6" y="95.2" width="154.4" height="29.2" maskUnits="userSpaceOnUse">
      <g id="mask-4">
        <path id="path-3" class="st1" d="M26.2,109.1c0,4.8,18.3,8.9,44.4,10.6,4.4.3,8.9-1.5,13.7-3.3,4.7-1.8,9.6-3.7,14.5-3.7s9.8,1.9,14.5,3.7c4.7,1.8,9.3,3.6,13.7,3.3,26.1-1.8,44.4-5.9,44.4-10.6l-31.7-5.5-40.9-3.7-40.9,3.7-31.7,5.5Z"/>
      </g>
    </mask>
    <mask id="mask-21" data-name="mask-2" x="11" y="83.1" width="175.7" height="86.2" maskUnits="userSpaceOnUse">
      <g id="mask-6">
        <path id="path-5" class="st1" d="M36.1,104.6l55.3-16.8,69.7,15.8c4.8,10.4,11.3,18.4,18.8,22.8-16.6,22.9-46.7,38.2-81.1,38.2s-64.5-15.3-81.1-38.2c7.3-4.3,13.6-11.9,18.4-21.8Z"/>
      </g>
    </mask>
    <mask id="mask-3" x="19.4" y="23.2" width="158.7" height="91.7" maskUnits="userSpaceOnUse">
      <g id="mask-8">
        <path id="path-7" class="st1" d="M90.7,33.3c-5,3.6-7.7,9.6-9,14.8-22.5,6.1-40,24.1-45.7,46.7l-.3.3c-4.4,3.7-7.6,8.6-9.4,14,0,0,28.2-4.6,72.6-4.6s72.6,4.6,72.6,4.6c-1.8-5.4-5.1-10.3-9.4-14l-.3-.3c-6.1-24.4-26-43.3-51-47.9,4.5-6.6,4-13.4,2.6-17.5-.4-1.1-1.6-1.7-2.7-1.4-4.5,1.2-8.6,4-10.3,5.4-.2-1.2-.6-2.2-1.2-3.2-.9-1.5-3.2-1.1-4.5,0-1.3,1.3-2.9,2.4-3.8,3.1ZM163.5,110.9c0-.1,0-.3,0-.4s0-.3,0-.4v.8Z"/>
      </g>
    </mask>
  </defs>
  <g id="_页面-1" data-name="页面-1">
    <g id="logo11">
      <g class="st0">
        <g id="_编组" data-name="编组">
          <g>
            <path id="_路径" data-name="路径" class="st5" d="M26.2,109.1c0,4.8,18.3,8.9,44.4,10.6,4.4.3,8.9-1.5,13.7-3.3,4.7-1.8,9.6-3.7,14.5-3.7s9.8,1.9,14.5,3.7c4.7,1.8,9.3,3.6,13.7,3.3,26.1-1.8,44.4-5.9,44.4-10.6l-31.7-5.5-40.9-3.7-40.9,3.7-31.7,5.5Z"/>
            <g id="Clipped">
              <g class="st12">
                <path id="_形状" data-name="形状" class="st8" d="M70.6,119.7l.3-4.6h0l-.3,4.6ZM26.2,109.1l-.8-4.6-3.8.7v3.9h4.6ZM84.3,116.5l1.7,4.3h0l-1.7-4.3ZM113.3,116.5l-1.7,4.3h0l1.7-4.3ZM127,119.7l-.3-4.6h0l.3,4.6ZM171.4,109.1h4.6v-3.9l-3.8-.7-.8,4.6ZM139.7,103.6l.8-4.6h-.2s-.2,0-.2,0l-.4,4.6ZM98.8,99.9l.4-4.6h-.4s-.4,0-.4,0l.4,4.6ZM57.9,103.6l-.4-4.6h-.2s-.2,0-.2,0l.8,4.6ZM70.9,115.1c-12.9-.9-23.7-2.3-31.2-4.1-3.8-.9-6.5-1.8-8.1-2.6-.8-.4-1.1-.7-1.2-.8,0,0,.5.5.5,1.4h-9.2c0,2.2,1.1,3.9,2.1,5,1,1.1,2.4,1.9,3.7,2.6,2.6,1.3,6.1,2.5,10.2,3.4,8.2,1.9,19.5,3.4,32.7,4.3l.6-9.2ZM82.6,112.2c-5,1.9-8.6,3.2-11.7,3l-.6,9.2c5.6.4,11.2-1.9,15.6-3.6l-3.3-8.6ZM98.8,108.2c-6,0-11.7,2.2-16.2,4l3.3,8.6c4.9-1.9,8.9-3.4,12.9-3.4v-9.2ZM115,112.2c-4.5-1.7-10.2-4-16.2-4v9.2c4,0,8,1.5,12.9,3.4l3.3-8.6ZM126.7,115.1c-3.1.2-6.7-1.1-11.7-3l-3.3,8.6c4.5,1.7,10.1,4,15.6,3.6l-.6-9.2ZM166.7,109.1c0-1,.5-1.5.5-1.4,0,0-.4.3-1.2.8-1.6.8-4.3,1.8-8.1,2.6-7.5,1.8-18.3,3.2-31.2,4.1l.6,9.2c13.2-.9,24.5-2.4,32.7-4.3,4.1-1,7.6-2.1,10.2-3.4,1.3-.7,2.6-1.5,3.7-2.6,1.1-1.1,2.1-2.8,2.1-5h-9.2ZM172.2,104.5l-31.7-5.5-1.6,9.1,31.7,5.5,1.6-9.1ZM140.1,99l-40.9-3.7-.8,9.2,40.9,3.7.8-9.2ZM98.4,95.3l-40.9,3.7.8,9.2,40.9-3.7-.8-9.2ZM57.1,99l-31.7,5.5,1.6,9.1,31.7-5.5-1.6-9.1Z"/>
              </g>
            </g>
            <path id="_路径2" data-name="路径" class="st1" d="M36.1,104.6l55.3-16.8,69.7,15.8c4.8,10.4,11.3,18.4,18.8,22.8-16.6,22.9-46.7,38.2-81.1,38.2s-64.5-15.3-81.1-38.2c7.3-4.3,13.6-11.9,18.4-21.8Z"/>
            <g id="Clipped1" data-name="Clipped">
              <g class="st14">
                <path id="_形状1" data-name="形状" class="st8" d="M91.4,87.8l1-4.5-1.2-.3-1.2.4,1.3,4.4ZM36.1,104.6l-1.3-4.4-1.9.6-.9,1.8,4.2,2ZM161.1,103.7l4.2-1.9-1-2.1-2.2-.5-1,4.5ZM179.9,126.5l3.7,2.7,3-4.1-4.4-2.6-2.3,4ZM17.7,126.5l-2.3-4-4.4,2.6,3,4.1,3.7-2.7ZM90.1,83.4l-55.3,16.8,2.7,8.8,55.3-16.8-2.7-8.8ZM162.1,99.2l-69.7-15.8-2,9,69.7,15.8,2-9ZM182.2,122.5c-6.5-3.8-12.5-11-17-20.8l-8.4,3.9c5.1,10.9,12.1,19.8,20.7,24.8l4.7-8ZM98.8,169.3c35.7,0,67.3-15.9,84.9-40.1l-7.5-5.4c-15.6,21.6-44.3,36.3-77.4,36.3v9.2ZM13.9,129.2c17.6,24.2,49.1,40.1,84.8,40.1v-9.2c-33.1,0-61.7-14.7-77.4-36.3l-7.5,5.4ZM31.9,102.6c-4.5,9.4-10.3,16.2-16.6,19.9l4.7,8c8.3-4.9,15.2-13.4,20.2-23.8l-8.3-4Z"/>
              </g>
            </g>
            <path id="_路径4" data-name="路径" class="st4" d="M135.7,102.6l22.2,5c1.7,3.4,3.5,6.5,5.6,9.4-7.5,5.3-20.1,11.9-33.4,11.9-4.2,0-12.5-1.8-18.3-6.1-2.2-1.6-8-4.9-13-4.9s-10.7,3.3-13,4.9c-5.8,4.2-14.1,6-18.3,6.1-13.3,0-25.9-6.6-33.4-11.9,1.9-2.6,3.6-5.5,5.2-8.6l19.3-5.9h77Z"/>
            <path id="_路径5" data-name="路径" class="st8" d="M56.6,118.2c2.7-7,9.6-8.4,12.8-8.2,10.5.5,14.9,7.3,14.6,10.3-.2,2.4-2.2,1.7-3,.9-1-1-3-2.4-4-3-8-4.9-14.1-.8-16.1,1.8-.7,1-1.5,1.4-1.8,1.5-3.2,1-2.9-1.8-2.4-3.3Z"/>
            <path id="_路径6" data-name="路径" class="st8" d="M141,118.2c-2.7-7-9.6-8.4-12.8-8.2-10.5.5-14.9,7.3-14.6,10.3.2,2.4,2.2,1.7,3,.9,1-1,3-2.4,4-3,8-4.9,14.1-.8,16.1,1.8.7,1,1.5,1.4,1.8,1.5,3.2,1,2.9-1.8,2.4-3.3Z"/>
            <path id="_路径7" data-name="路径" class="st10" d="M40.4,99.6l2,2.3,1.7-2.5,25.6-37.2,1.5-2.2-2.3-1.2c-7.4-3.9-14.6-5.9-20.2-6.8-2.8-.5-5.3-.7-7.3-.7-2,0-3.6.1-4.7.4h0s0,0,0,0c-2.2.7-3.5,2.9-4.2,4.5-.8,1.8-1.2,3.7-1.4,5h0s0,0,0,0c-2.2,18.8,5.3,33.1,9.6,38.1Z"/>
            <path id="_路径8" data-name="路径" class="st3" d="M33.3,55.2c2.9,6.7,9,17.4,17.8,23.5l-8.2,15-3,4.4c-3.9-4.6-11.3-18.2-9.1-36.3.3-1.8,1.1-4.8,2.5-6.5Z"/>
            <path id="_形状2" data-name="形状" class="st8" d="M51,78.7l2,1.1,1-1.8-1.7-1.2-1.3,1.9ZM33.3,55.2l2.1-.9-1.5-3.4-2.4,2.8,1.8,1.5ZM42.9,93.6l1.9,1.3h0c0-.1,0-.2,0-.2l-2-1.1ZM39.9,98l-1.7,1.5,2,2.3,1.7-2.5-1.9-1.3ZM30.7,61.7l-2.3-.3h0s0,0,0,0l2.3.3ZM52.4,76.8c-8.3-5.7-14.1-15.9-16.9-22.5l-4.2,1.8c2.9,6.8,9.3,18,18.6,24.4l2.6-3.8ZM44.9,94.7l8.2-15-4.1-2.2-8.2,15,4.1,2.2ZM41.8,99.3l3-4.4-3.8-2.6-3,4.4,3.8,2.6ZM28.5,61.5c-2.2,18.8,5.3,33.1,9.7,38.1l3.5-3c-3.6-4.1-10.6-17.1-8.6-34.5l-4.6-.5ZM31.5,53.7c-1,1.2-1.7,2.6-2.1,4-.5,1.3-.8,2.7-.9,3.7l4.6.7c.1-.8.3-1.8.7-2.8.4-1.1.8-1.9,1.3-2.5l-3.5-3Z"/>
            <path id="_路径9" data-name="路径" class="st10" d="M157.2,99.6l-2,2.3-1.7-2.5-25.6-37.2-1.5-2.2,2.3-1.2c7.4-3.9,14.6-5.9,20.2-6.8,2.8-.5,5.3-.7,7.3-.7,2,0,3.6.1,4.7.4h0s0,0,0,0c2.2.7,3.5,2.9,4.2,4.5.8,1.8,1.2,3.7,1.4,5h0s0,0,0,0c2.2,18.8-5.3,33.1-9.6,38.1Z"/>
            <path id="_路径10" data-name="路径" class="st3" d="M164.3,55.2c-2.9,6.7-9,17.4-17.8,23.5l8.2,15,3,4.4c3.9-4.6,11.3-18.2,9.1-36.3-.3-1.8-1.1-4.8-2.5-6.5Z"/>
            <path id="_形状3" data-name="形状" class="st8" d="M146.6,78.7l-2,1.1-1-1.8,1.7-1.2,1.3,1.9ZM164.3,55.2l-2.1-.9,1.5-3.4,2.4,2.8-1.8,1.5ZM154.7,93.6l-1.9,1.3h0c0-.1,0-.2,0-.2l2-1.1ZM157.8,98l1.7,1.5-2,2.3-1.7-2.5,1.9-1.3ZM166.9,61.7l2.3-.3h0s0,0,0,0l-2.3.3ZM145.3,76.8c8.3-5.7,14.1-15.9,16.9-22.5l4.2,1.8c-2.9,6.8-9.3,18-18.6,24.4l-2.6-3.8ZM152.7,94.8l-8.2-15,4.1-2.2,8.2,15-4.1,2.2ZM155.9,99.3l-3-4.4,3.8-2.6,3,4.4-3.8,2.6ZM169.2,61.5c2.2,18.8-5.3,33.1-9.7,38.1l-3.5-3c3.6-4.1,10.6-17.1,8.6-34.5l4.6-.5ZM166.1,53.7c1,1.2,1.7,2.6,2.1,4,.5,1.3.8,2.7.9,3.7l-4.6.7c-.1-.8-.3-1.8-.7-2.8-.4-1.1-.8-1.9-1.3-2.5l3.5-3Z"/>
            <path id="_形状4" data-name="形状" class="st2" d="M90.7,33.3c-5,3.6-7.7,9.6-9,14.8-22.5,6.1-40,24.1-45.7,46.7l-.3.3c-4.4,3.7-7.6,8.6-9.4,14,0,0,28.2-4.6,72.6-4.6s72.6,4.6,72.6,4.6c-1.8-5.4-5.1-10.3-9.4-14l-.3-.3c-6.1-24.4-26-43.3-51-47.9,4.5-6.6,4-13.4,2.6-17.5-.4-1.1-1.6-1.7-2.7-1.4-4.5,1.2-8.6,4-10.3,5.4-.2-1.2-.6-2.2-1.2-3.2-.9-1.5-3.2-1.1-4.5,0-1.3,1.3-2.9,2.4-3.8,3.1ZM163.5,110.9c0-.1,0-.3,0-.4s0-.3,0-.4v.8Z"/>
            <g id="Clipped2" data-name="Clipped">
              <g class="st11">
                <path id="_形状6" data-name="形状" class="st8" d="M81.7,48.1l1.2,4.5,2.6-.7.7-2.6-4.5-1.2ZM90.7,33.3l-2.6-3.8h0s0,0,0,0l2.7,3.8ZM36,94.8l3,3.5,1.1-1,.4-1.4-4.5-1.1ZM35.7,95.1l3,3.5h0l-3-3.5ZM26.2,109.1l-4.4-1.5-2.4,7.3,7.6-1.2-.7-4.6ZM171.4,109.1l-.7,4.6,7.6,1.2-2.4-7.3-4.4,1.5ZM161.9,95.1l-3,3.5h0l3-3.5ZM161.6,94.8l-4.5,1.1.4,1.4,1.1,1,3-3.5ZM110.6,46.9l-3.8-2.6-4,5.9,7,1.3.8-4.5ZM113.2,29.3l-4.4,1.5h0l4.4-1.5ZM110.5,27.9l1.2,4.5h0l-1.2-4.5ZM100.2,33.3l-4.6.6,1.1,8.3,6.4-5.4-3-3.5ZM99,30.2l3.9-2.4h0l-3.9,2.4ZM94.6,30.2l3.2,3.3h0l-3.2-3.3ZM163.5,110.9h-4.6,9.2s-4.6,0-4.6,0ZM163.5,110.1h4.6s-9.2,0-9.2,0h4.6ZM86.2,49.2c1.2-4.8,3.6-9.5,7.2-12.2l-5.4-7.5c-6.3,4.5-9.4,11.7-10.8,17.4l8.9,2.3ZM40.5,95.9c5.2-21,21.6-37.7,42.4-43.4l-2.4-8.9c-24.1,6.6-42.9,25.8-48.9,50.1l9,2.2ZM38.7,98.6l.3-.3-6-7-.3.3,6,7ZM30.6,110.6c1.5-4.6,4.3-8.8,8.1-12l-6-7c-5,4.3-8.7,9.8-10.8,16.1l8.8,2.9ZM98.8,99.9c-22.4,0-40.6,1.2-53.3,2.3-6.4.6-11.3,1.2-14.7,1.6-1.7.2-3,.4-3.9.5-.4,0-.8.1-1,.2-.1,0-.2,0-.3,0,0,0,0,0,0,0,0,0,0,0,0,0,0,0,0,0,0,0,0,0,0,0,0,0t.7,4.6q.7,4.6.7,4.6s0,0,0,0h0s0,0,0,0c0,0,0,0,0,0,0,0,.1,0,.2,0,.2,0,.5,0,.9-.1.8-.1,2.1-.3,3.7-.5,3.3-.4,8.1-1,14.4-1.6,12.5-1.1,30.5-2.3,52.5-2.3v-9.2ZM171.4,109.1q.7-4.6.7-4.6s0,0,0,0c0,0,0,0,0,0,0,0,0,0,0,0,0,0,0,0,0,0,0,0-.1,0-.3,0-.2,0-.6,0-1-.2-.9-.1-2.2-.3-3.9-.5-3.4-.4-8.4-1-14.7-1.6-12.7-1.2-31-2.3-53.3-2.3v9.2c22,0,40,1.1,52.5,2.3,6.2.6,11.1,1.1,14.4,1.6,1.6.2,2.9.4,3.7.5.4,0,.7.1.9.1.1,0,.2,0,.2,0,0,0,0,0,0,0,0,0,0,0,0,0h0s0,0,.7-4.6ZM158.9,98.6c3.7,3.2,6.5,7.3,8.1,12l8.8-2.9c-2.1-6.2-5.8-11.8-10.8-16.1l-6,7ZM158.6,98.3l.3.3,6-7-.3-.3-6,7ZM109.8,51.4c23.2,4.3,41.7,21.9,47.3,44.5l9-2.2c-6.5-26.2-27.9-46.4-54.6-51.4l-1.7,9.1ZM108.8,30.9c1,3,1.5,8.2-2,13.4l7.7,5.2c5.5-8.1,4.9-16.4,3.1-21.6l-8.7,3ZM111.7,32.4c-1.1.3-2.4-.3-2.8-1.5l8.7-3c-1.2-3.5-4.8-5.3-8.2-4.4l2.3,8.9ZM103.2,36.8c1.4-1.1,4.9-3.5,8.5-4.5l-2.3-8.9c-5.4,1.4-10.1,4.6-12.1,6.3l5.9,7.1ZM95.1,32.6c.3.5.5,1,.5,1.3l9.2-1.2c-.3-2-1-3.7-1.8-5l-7.9,4.8ZM97.7,33.6c0,0-.2.2-.5.2-.2,0-.6,0-1-.2-.5-.2-.9-.6-1.2-1l7.9-4.8c-1.6-2.6-4.3-3.3-6.4-3.2-2,.1-3.9,1-5.2,2.3l6.4,6.7ZM93.3,37.2c1.1-.7,2.9-2.1,4.5-3.6l-6.4-6.7c-1.1,1-2.4,2-3.2,2.6l5.1,7.7ZM158.9,110.5c0,.1,0,.3,0,.4h9.2c0,0,0-.2,0-.4h-9.2ZM158.9,110.1c0,.1,0,.3,0,.4h9.2c0-.1,0-.3,0-.4h-9.2ZM168.1,110.9v-.8h-9.2v.8h9.2Z"/>
              </g>
            </g>
            <rect id="_矩形1" data-name="矩形" class="st9" x="88.6" y="69.4" width="20.3" height="10.6"/>
            <path id="_路径11" data-name="路径" class="st7" d="M45.5,77.1c-.8-8,4.9-15.2,12.9-16.2l16.5-2.1c8.2-1,15.7,4.9,16.6,13.1l.5,4.9c.9,8.2-5.2,15.6-13.5,16.3l-16.6,1.4c-8,.7-15.1-5.2-15.9-13.2l-.4-4.2Z"/>
            <path id="_路径12" data-name="路径" class="st6" d="M55,76.9c-.5-4.7,2.9-9,7.6-9.6l9.8-1.2c4.9-.6,9.3,2.9,9.8,7.8l.3,2.9c.5,4.9-3.1,9.2-8,9.7l-9.8.8c-4.8.4-9-3.1-9.5-7.8l-.3-2.5Z"/>
            <path id="_形状7" data-name="形状" class="st8" d="M74.7,57.2c9-1.1,17.2,5.3,18.3,14.3v.3s.5,4.9.5,4.9c1,9.1-5.6,17.1-14.7,18h-.3s-16.6,1.4-16.6,1.4c-8.8.7-16.6-5.6-17.7-14.4v-.3s-.5-4.2-.5-4.2c-.9-8.8,5.3-16.7,14-18h.3s16.5-2.1,16.5-2.1ZM89.9,72.1c-.8-7.3-7.3-12.5-14.5-11.7h-.2s-16.5,2.1-16.5,2.1c-7,.9-12.1,7.2-11.5,14.2v.2s.5,4.2.5,4.2c.7,7.1,6.9,12.2,14,11.8h.2s16.6-1.4,16.6-1.4c7.3-.6,12.7-7,12-14.3v-.2s-.5-4.9-.5-4.9ZM84.8,72.4v.2s.5,4.9.5,4.9c.5,4.5-2.8,8.4-7.2,8.9h-.2s-16.6,1.4-16.6,1.4c-4.3.4-8.2-2.8-8.7-7.1v-.2s-.5-4.2-.5-4.2c-.5-4.3,2.6-8.2,6.9-8.8h.2s16.5-2.1,16.5-2.1c4.4-.6,8.4,2.5,9,6.9v.2ZM76.3,68.6h-.1s-16.5,2.1-16.5,2.1c-2.6.3-4.4,2.6-4.2,5.2h0c0,.1.4,4.3.4,4.3.3,2.6,2.5,4.5,5.1,4.3h.1s16.6-1.4,16.6-1.4c2.7-.2,4.6-2.6,4.4-5.2h0c0-.1-.5-5-.5-5-.3-2.6-2.6-4.5-5.2-4.3h-.1Z"/>
            <path id="_路径13" data-name="路径" class="st7" d="M151.6,81.3c-.8,8-7.9,13.9-15.9,13.2l-16.6-1.4c-8.3-.7-14.3-8-13.5-16.3l.5-4.9c.9-8.2,8.3-14.2,16.6-13.1l16.5,2.1c8,1,13.7,8.2,12.9,16.2l-.4,4.2Z"/>
            <path id="_路径14" data-name="路径" class="st6" d="M142.3,79.4c-.5,4.7-4.7,8.2-9.5,7.8l-9.8-.8c-4.9-.4-8.5-4.8-8-9.7l.3-2.9c.5-4.9,4.9-8.4,9.8-7.8l9.8,1.2c4.7.6,8.1,4.9,7.6,9.6l-.3,2.5Z"/>
            <path id="_形状8" data-name="形状" class="st8" d="M104.5,71.7c1-9.1,9.1-15.6,18.1-14.6h.3s16.5,2.1,16.5,2.1c8.8,1.1,15.1,9,14.3,17.7v.3s-.5,4.2-.5,4.2c-.9,8.8-8.6,15.2-17.4,14.7h-.3s-16.6-1.4-16.6-1.4c-9.1-.8-15.8-8.8-15-17.8v-.3s.5-4.9.5-4.9ZM122.5,60.4c-7.3-.9-13.8,4.2-14.7,11.5v.2s-.5,4.9-.5,4.9c-.8,7.3,4.5,13.8,11.8,14.5h.2s16.6,1.4,16.6,1.4c7.1.6,13.3-4.5,14.2-11.5v-.2s.5-4.2.5-4.2c.7-7.1-4.2-13.4-11.2-14.4h-.2s-16.5-2.1-16.5-2.1ZM121.7,65.4h.2s16.5,2.1,16.5,2.1c4.3.5,7.4,4.4,7,8.7v.2s-.5,4.2-.5,4.2c-.5,4.3-4.2,7.5-8.6,7.2h-.2s-16.6-1.4-16.6-1.4c-4.5-.4-7.8-4.3-7.4-8.8v-.2s.5-4.9.5-4.9c.5-4.4,4.4-7.6,8.8-7.2h.2ZM116,72.8h0c0,.1-.5,5-.5,5-.3,2.7,1.6,5,4.3,5.3h.1s16.6,1.4,16.6,1.4c2.6.2,4.9-1.6,5.2-4.2h0c0-.1.4-4.3.4-4.3.3-2.6-1.5-4.9-4.1-5.3h-.1s-16.5-2.1-16.5-2.1c-2.6-.3-5,1.5-5.4,4h0Z"/>
            <path id="_路径15" data-name="路径" class="st3" d="M98.8,123h-2.5c-1.9,0-5.8.6-5.8,4.2,0,1.3,1.4,4.4,6.2,6.5.4.2,1.3.5,2.1.5s1.7-.3,2.1-.5c4.8-2,6.2-5.2,6.2-6.5,0-3.5-3.9-4.2-5.8-4.2h-2.5Z"/>
            <path id="_路径16" data-name="路径" class="st13" d="M83.1,137.2c1.2,2,5,6.1,10.1,6.1,1.4,0,4.6-.5,5.6-3.4v-5.9"/>
            <path id="_路径17" data-name="路径" class="st13" d="M114.5,137.2c-1.2,2-5,6.1-10.1,6.1-1.4,0-4.6-.5-5.6-3.4v-5.9"/>
          </g>
        </g>
      </g>
    </g>
  </g>
</svg>