<?xml version="1.0" encoding="UTF-8"?>
<svg id="_图层_1" xmlns="http://www.w3.org/2000/svg" version="1.1" viewBox="0 0 6267 1202">
  <!-- Generator: Adobe Illustrator 29.1.0, SVG Export Plug-In . SVG Version: 2.1.0 Build 142)  -->
  <defs>
    <style>
      .st0 {
        fill: #061015;
      }

      .st1, .st2 {
        fill-rule: evenodd;
      }

      .st1, .st3 {
        fill: #fff;
      }

      .st4 {
        fill: #000c10;
      }

      .st5 {
        fill: #0d1a1f;
      }

      .st2, .st6 {
        fill: #009853;
      }

      .st7 {
        fill: #293438;
      }

      .st8 {
        fill: #0e181e;
      }

      .st9 {
        fill: #b2b8c6;
      }

      .st10 {
        fill: #0d1a1e;
      }

      .st11 {
        fill: #0e181d;
      }

      .st12 {
        fill: #0c151a;
      }

      .st13 {
        fill: #b3b9c8;
      }

      .st14 {
        fill: #c0c5d5;
      }

      .st15 {
        fill: #b1b7c6;
      }

      .st16 {
        fill: #050e13;
      }

      .st17 {
        fill: #242d32;
      }

      .st18 {
        fill: #010c11;
      }

      .st19 {
        fill: #010d11;
      }

      .st20 {
        fill: #009753;
      }

      .st21 {
        fill: #0e1b20;
      }

      .st22 {
        fill: #0f191e;
      }

      .st23 {
        fill: #b2b8c7;
      }

      .st24 {
        fill: #bdc3d3;
      }

      .st25 {
        fill: #b4bac9;
      }

      .st26 {
        fill: #030f13;
      }

      .st27 {
        fill: #fefefe;
      }

      .st28 {
        fill: #0b161b;
      }

      .st29 {
        fill: #050d12;
      }

      .st30 {
        fill: #0e191e;
      }

      .st31 {
        fill: #bfc4d4;
      }

      .st32 {
        fill: #01080d;
      }

      .st33 {
        fill: #00060b;
      }

      .st34 {
        fill: #010b11;
      }

      .st35 {
        fill: #00a056;
      }

      .st36 {
        fill: #051217;
      }

      .st37 {
        fill: #00a157;
      }

      .st38 {
        fill: #00080d;
      }

      .st39 {
        fill: #0a151a;
      }

      .st40 {
        fill: #bec4d3;
      }
    </style>
  </defs>
  <g>
    <path class="st3" d="M696.7,1165.2c-13.3,0-26.6-.3-39.5-.9-.3,0-.8,0-1.4,0-1.5,0-2.9.1-4.4.1-3.6,0-7-.3-10.1-1-1.4,0-2.8.1-4.2.1-3.5,0-6.7-.3-9.7-1-.8,0-1.6,0-2.4,0-3.3,0-6.4-.3-9.3-1-.8,0-1.5,0-2.3,0-3,0-5.8-.3-8.3-.9-.2,0-.4,0-.6,0-3.2,0-6-.4-8.6-1-3.3,0-6.3-.5-9-1.3-1.8-.2-3.3-.5-4.6-.8-.4,0-.8,0-1.2,0-2.6-.3-4.6-.7-6-.9h-.5c-214.8-26.6-412.4-138.5-528.7-299.4l-19.2-26.6,28.7-16c25.7-14.3,50-35.9,75.1-66.8-12.4-9.1-23.4-21.8-23.7-40.1-.1-7.1,1.6-14.6,11.4-36.5,11.8-26.4,28.4-51.3,49.7-74.4-9.3-19.4-17.5-40.3-24.7-63.5-6.9-22.2-11.4-40.9-14.8-62.3v-.4c-.3-1.2-.7-2.9-1.1-5.1,0-.5-.1-1-.2-1.5-.3-1.2-.5-2.6-.8-4.3-.3-1.9-.5-3.9-.7-5.8,0-.1,0-.3,0-.4-1.6-5.5-2.3-11.6-2.4-18.7-2.8-28.4-3.1-52.9-.9-81.6-.3-4.1,0-8,.8-11.5,0-3.3.4-6.2,1.1-8.8.2-2.9.7-5.4,1.5-7.8.9-7.1,2.6-12.9,4.1-18.1.3-1.1.7-2.3,1-3.5,12.1-42.4,33.1-70.1,62.5-82.2,4.3-1.8,9.3-3.6,15.2-4.9,2.4-.9,5.1-1.6,8.1-1.9,2.9-.8,5.9-1.2,9-1.2s1.3,0,2,0c6.5-.6,13.2-.9,20.5-.9s18.9.5,26.9,1c51.4,3.2,104.3,15.7,165.5,39.4,30.5-17,64.4-31.4,101.1-43.1,14.1-44.2,35.7-79.9,63.1-104,5.9-5.2,12.2-9.6,17.7-13.5,3.3-2.3,6.4-4.5,9.2-6.7,1.6-1.3,3.7-3.2,5.9-5.2,9-8.3,22.7-20.8,42.4-22.3,1.7-.1,3.3-.2,4.8-.2,18.3,0,29.5,8.6,36.3,17,14.4-8.8,31.8-17.5,50.6-23.1,8.9-2.7,15.8-3.8,22.3-3.8,15.2,0,35.4,6.5,45.1,37.5,8.1,26.1,9.3,58.1,3.2,87.8-2.2,10.9-5.6,21.2-9.4,30.6,42.5,11.3,83.5,27.7,122.4,49.2,18.8-7.5,38-14,58.2-19.8,49.5-14.2,92.6-21.1,131.8-21.1s11.5.2,17,.5c13.8.8,30.4,2.9,48.4,13,79.7,44.6,65.4,189.5,59.1,232.8-7,48.6-21.2,95-42.1,138.3,18.8,20.2,34.5,42.9,46,66.5,13.5,27.8,14.5,36.6,14.8,39.4,1.1,10.1-1,28-23.5,45.3,24.2,29.9,48.9,51.9,75.1,66.8l28.2,16.1-19,26.4c-15.7,21.8-30.9,40.6-46.3,57.5-2.4,2.6-4.7,4.6-6.5,6.2-.6.5-1.3,1.1-1.8,1.6-9.1,9.6-17.2,17.7-27.1,27.1-105.1,99.8-256.5,175.9-395.1,198.4,0,0-1.6.3-1.6.3-5.8,2.2-10.9,2.5-13.6,2.6h-.4c-1.1.2-2.2.3-3.3.5-.8.1-1.6.2-2.4.3h-.5c-1.3.4-2.7.7-4.3.9l-2.3.4h-.2c-1,.2-2.2.4-3.5.6l-1.7.3c-1.3.2-2.6.4-3.9.6-1,.3-2.4.6-4,.8-2.7.9-5.6,1.4-8.6,1.5-2.6.6-5.3,1-8,1s-1.2,0-1.8,0c-1.2.3-2.6.5-4.1.7-2.7.7-5.7,1.2-9,1.3-2.6.6-5.5,1-8.6,1s-.4,0-.6,0c-2.5.6-5.3.9-8.3.9s-1.5,0-2.3,0c-2.9.7-6.1,1-9.3,1s-1.6,0-2.4,0c-3,.7-6.3,1-9.7,1s-2.8,0-4.2-.1c-3.2.7-6.5,1-10.2,1s-2.9,0-4.4-.1c-.6,0-1.1,0-1.6,0-14.1.6-27.6.9-41,.9Z"/>
    <g>
      <path class="st21" d="M273.2,242.9c59,3.6,115.3,20.6,169.6,42.6,38.2-22.8,79.6-39.7,122.3-52.2,10.3-38.5,28.5-78.7,58.8-105.4,8-7,17.2-12.6,25.6-19.1,9.8-7.7,19.5-20.4,32.6-21.4,11.6-.9,16.1,4.2,20.7,13.8,2.8,5.8,4,12,6.3,17.9,20.1-16.3,45.7-31.7,70.7-39.1,17.5-5.2,25.5-3.8,31.2,14.4,7.1,22.6,7.2,50.1,2.5,73.2-4.2,20.4-13.3,38.9-23.9,56.6,57.6,10.9,113,31.9,163.4,61.4,22.3-9.5,45-17.5,68.3-24.2,20.8-4.7,41.9-9.2,63.3-13.4,36.7-5.6,76.9-11.4,111.6,3.2,57.4,32.2,52.6,147.5,44.5,203.1-7.5,52-23.9,102-48.9,148.1,22.6,20.8,41.9,45.9,55.4,73.6,2.9,6,11.4,24.3,12.1,29.9,1.2,10.8-14.4,21-22.5,25.5-2.6,1.4-14.1,5.7-14.5,6.4s0,2,.4,2.7c27.6,39.1,60.8,75.7,102.8,99.6-13.7,19-28.4,37.6-44.2,54.9-2.4,2.7-5.6,5-7.9,7.4-9.3,8-18,16.7-26.1,26.1-99.1,94.1-244,168.7-379.7,190.7-3.3-.6-7.3,0-10.9.7-42.3,7.6-84.1,13-128,14.6-44.5,1.7-88.3-.8-131.3-5.7-4.4-.5-9.2-.7-13.6-.3-2.2-.2-4-.7-5.6-.9q1.1-.6,0,0c-196.8-24.2-392.1-125.8-509-287.5,42.7-23.8,76-61.6,104.2-101-10.8-6.3-37.6-16.8-37.8-31.8,0-4,6.8-19.6,8.8-24.2,13.7-30.8,34.3-57.8,58.6-80.9-13.7-24.7-24-50.6-32.4-77.6-18.8-68.2-27.7-143.9-12.1-213.1,7.2-25.1,20-52.7,45.6-63.3,11.1-2.6,22.3-4.8,34.1-5.5,11.2-.7,25.4-1.2,35.7,1.8.4-.3.4-.6,0-.9-1,.7-1.5.3-.9-.9Z"/>
      <path class="st11" d="M867.8,1119.4c-1.9.3-3.7.7-5.6.9l-9.3,1.9c-2.2.4-4.4.6-6.5.9-1.6,0-3.2.3-4.7.9-.3,0-.6,0-.9,0-1.6,0-3.2.3-4.7.9-2.2.3-4.3.7-6.5.9l-4.7.9c-.6,0-1.2,0-1.9,0l-5.6.9c-.3,0-.6,0-.9,0l-5.6.9c-.6,0-1.3,0-1.9,0l-4.7.9c-.9,0-1.9,0-2.8,0l-6.5.9c-.3,0-.6,0-.9,0l-7.4.9c-.6,0-1.2,0-1.9,0l-6.5.9c-1.2,0-2.5,0-3.7,0l-9.3.9c-.6,0-1.2,0-1.9,0l-11.2.9c-.9,0-1.9,0-2.8,0l-13,.9c-26.2,1.1-52,1.2-78.2,0l-13-.9c-.9,0-1.9,0-2.8,0l-11.2-.9c-.6,0-1.2,0-1.9,0l-9.3-.9c-1.2,0-2.5,0-3.7,0l-6.5-.9c-.6,0-1.2,0-1.9,0l-7.4-.9c-.3,0-.6,0-.9,0l-6.5-.9c-.9,0-1.9,0-2.8,0l-4.7-.9c-.6,0-1.3,0-1.9,0,8.7-2.6,18.7,1,27.5,1.8,72.1,6.6,146,4.9,217.6-5.7,10.7-1.6,22.2-4.9,32.8-6.3,1.7-.2,4.7-.8,6,.8Z"/>
      <path class="st30" d="M170.8,524.8c-6.3-20.3-10.5-37.5-14-58.6,0-1.6-.3-3.2-.9-4.7,0-.3,0-.6,0-.9,0-1.6-.3-3.2-.9-4.7-.4-2.8-.6-5.6-.9-8.4-1.1-4.6-1.6-9.3-1.9-14-2.8-27.7-3.1-51.3-.9-79.1,0-2.5.3-5,.9-7.4,0-.6,0-1.2,0-1.9l.9-6.5c0-.3,0-.6,0-.9l.9-4.7c.4-8.2,2.5-13.8,4.7-21.4,1.7,5-1.6,11.4-2.5,16.5-8.9,49.6-4.3,112,6.7,161.2,2.3,10.4,6,20.7,8.2,30.8.3,1.4,1.4,3.6-.3,4.5Z"/>
      <path class="st39" d="M1196.3,251.3c-.6,1.9-2.7,0-3.7-.5-43.9-18.9-121.1.7-166.7,11-1.4.3-3.6,1.4-4.5-.3,44.2-12.7,92.9-22.1,139.2-19.6,13.3.7,24.2,2.8,35.8,9.3Z"/>
      <path class="st30" d="M273.2,242.9c0,.4.5.9.9.9.8.3.8.6,0,.9-1.5,0-3.2-.9-5.1-1-19.6-.6-41.8-1-60.5,4.7-1.2.4-3.4,1.8-4.2,0,4.4-1.8,8.3-3.2,13-3.7l4.7-.9c.3,0,.6,0,.9,0,1.8-.7,3.6-1,5.6-.9,15.1-1.6,29.6-.9,44.7,0Z"/>
      <path class="st28" d="M1273.5,902.6c-8.9,9.4-16.7,17.2-26.1,26.1-1.9-.4,1-2.4,1.4-2.8,6.5-6.5,13-13,19.5-19.5l5.1-3.7Z"/>
      <path class="st21" d="M749.6,1134.3c-3.6,1.8-8.9.8-13,.9,3.5-1.7,8.9-.9,13-.9Z"/>
      <path class="st21" d="M658.4,1135.2c-4.2-.2-9.5.9-13-.9,4.1,0,9.5-.8,13,.9Z"/>
      <path class="st21" d="M642.6,1134.3c-3.5,0-8.4.8-11.2-.9,3.5,0,8.4-.8,11.2.9Z"/>
      <path class="st21" d="M763.6,1133.3c-2.8,1.7-7.6.9-11.2.9,2.8-1.7,7.6-.9,11.2-.9Z"/>
      <path class="st21" d="M629.6,1133.3c-2.9,0-7.2.8-9.3-.9,2.9,0,7.2-.8,9.3.9Z"/>
      <path class="st21" d="M774.7,1132.4c-2.1,1.7-6.4.9-9.3.9,2.1-1.7,6.4-.9,9.3-.9Z"/>
      <path class="st21" d="M154.1,447.6c-1.6-4-1.9-9.4-1.9-14,.4,4.2,1.3,9.4,1.9,14Z"/>
      <path class="st21" d="M151.3,354.6c.3-2.3-.9-5.8.9-7.4-.1,2.8-.8,5.4-.9,7.4Z"/>
      <path class="st21" d="M794.3,1130.5c-1.5,1.7-5.1.9-7.4.9,1.6-1.7,5.1-.9,7.4-.9Z"/>
      <path class="st21" d="M608.2,1131.5c-2.3,0-5.9.7-7.4-.9,2.3,0,5.9-.7,7.4.9Z"/>
      <path class="st21" d="M785,1131.5c-1.3,1.6-4.5.9-6.5.9,1.3-1.6,4.5-.9,6.5-.9Z"/>
      <path class="st21" d="M616.5,1132.4c-2,0-5.2.7-6.5-.9,2,0,5.2-.7,6.5.9Z"/>
      <path class="st21" d="M152.2,345.3c0-2-.7-5.2.9-6.5,0,2.1.7,5.2-.9,6.5Z"/>
      <path class="st21" d="M801.7,1129.6c-1.3,1.6-4.5.9-6.5.9,1.3-1.6,4.5-.9,6.5-.9Z"/>
      <path class="st21" d="M599.8,1130.5c-2,0-5.2.7-6.5-.9,2,0,5.2-.7,6.5.9Z"/>
      <path class="st21" d="M816.6,1127.8c-1,1.7-3.9.7-5.6.9,1-1.6,3.8-.9,5.6-.9Z"/>
      <path class="st21" d="M823.1,1126.8c-1,1.6-3.8.9-5.6.9,1-1.6,3.8-.9,5.6-.9Z"/>
      <path class="st21" d="M228.5,242.9c-1.5.2-3.4.7-5.6.9,1-1.6,3.8-.8,5.6-.9Z"/>
      <path class="st21" d="M862.2,1120.3c-2.6,1.9-6.4,1.4-9.3,1.9,2.6-1.8,6.4-1.5,9.3-1.9Z"/>
      <path class="st21" d="M846.4,1123.1c-1.4.2-2.9.7-4.7.9.8-1.5,3.2-.9,4.7-.9Z"/>
      <path class="st21" d="M840.8,1124c-1.1.2-2.9.7-4.7.9.8-1.5,3.2-.9,4.7-.9Z"/>
      <path class="st21" d="M829.6,1125.9c-1.2.1-2.5.8-4.7.9.8-1.5,3.2-.9,4.7-.9Z"/>
      <path class="st21" d="M222,243.9c-.8,1.6-3.2.8-4.7.9,1.4-1.4,3-.9,4.7-.9Z"/>
      <path class="st21" d="M590.5,1129.6c-2.1-.1-3.9-.9-4.7-.9,1.5,0,3.9-.6,4.7.9Z"/>
      <path class="st21" d="M809.2,1128.7c-.8,0-2.5.8-4.7.9.8-1.5,3.2-.9,4.7-.9Z"/>
      <path class="st21" d="M153.1,337.8c0-1.5-.6-3.9.9-4.7,0,1.5.6,3.9-.9,4.7Z"/>
      <path class="st21" d="M155.9,460.6c-.1-1-.7-2.9-.9-4.7,1.5.8.9,3.2.9,4.7Z"/>
      <path class="st21" d="M156.9,466.2c-.2-1.4-.7-2.8-.9-4.7,1.5.8.9,3.2.9,4.7Z"/>
      <path class="st27" d="M1235.4,812.3c6.1,4.9,11.5,10.8,16.7,16.7,6.9,6.6,13.6,13.4,21.3,19.2.3,1.1-1.1,2.7-1.8,3.6-5.3,7.4-14.9,17.3-21.4,24.2-115.8,123.7-280,196.7-447.3,218l-46.9,4.8c-25.8,2.1-52.3,3.2-78.2,1.9l-21.4-.9c-.9,1.1-1.9,1.1-2.8,0l-13-.9c-.6,1.2-1.3,1.1-1.9,0l-10.2-.9c-.9,1.2-1.9,1.1-2.8,0l-6.5-.9c-1.2,1.3-2.5,1.2-3.7,0l-7.4-.9c-.2.8-.5.8-.9,0l-7.4-.9c-.2.8-.5.8-.9,0l-5.6-.9c-.8,1.3-1.9,1.3-2.8,0l-5.6-.9c-.2.8-.5.8-.9,0l-5.6-.9c-.2.8-.5.8-.9,0-1.6,0-3.2-.3-4.7-.9-.5,1.4-1.3,1.3-1.9,0l-11.2-1.9c-3.2,1-8.3,0-11.2-1.9-1.7,0-3.2-.3-4.7-.9-3.2.8-7.4-.2-10.2-1.9l-4.7-.9c-5.7-.1-11.6-1.2-16.7-3.7-56.3-13.4-111.5-32-163.8-56.8-8-2.3-15.8-6-22.3-11.2-77.6-40.6-147.7-95.1-204.3-161.9l-.3-2.7c28.4-21.9,54.4-50,75.2-79.2,2.5.6,5,1.2,7.3,2.6,45.5,27.4,85.7,51.4,136.9,67.9,54.7,17.7,111.1,25.1,167.2,11.4,44.5-10.9,79.4-32.1,117.1-55.8,18-10.2,37.5-18.6,58.4-20.7,48.7-4.9,88.6,20.2,127.8,45.5,89.6,55.3,191.6,44,285.2,3.4,34.5-15,62.9-32.9,94.4-52.8,2.1-1.3,4.5-2,6.9-2.5,11.6,16.3,23.6,30.2,37.2,44.7Z"/>
      <path class="st15" d="M953.4,679.3c2.9-.6,6.5-.8,9.3,0,22.6.3,45.5,2.5,67.9,4.7,2.7-.2,5.5-.5,8.4-.9,7.1-1.3,15.1-.3,22.3.9l9.3.9c.9-1.2,1.9-1.1,2.8,0l7.4.9c1.2-1.3,2.5-1.3,3.7,0l7.4.9c.9-1.5,1.9-1.4,2.8,0l9.3.9c.2-.8.5-.8.9,0l8.4.9c.5-1.5,1.3-1.5,1.9,0l6.5.9c1.1-1.5,2.5-1.4,3.7,0l7.4.9c0-.8.4-.8.9,0,1.8.6,3.6.9,5.6.9,3.4-.7,10,.7,13,2.8.6.2,2.5,1.2,2.8,1.6,12.4,25,26.6,49.2,42.8,71.9-52.3,37-113.1,67.6-175.9,82.4-64.9,15.3-119.8,13.1-181.4-13.1-40.6-17.2-68.7-46.6-113.5-57.7-75.8-18.6-113.4,32.8-174.3,58.3-58.3,24.4-111,27.5-172.6,14.1-66.4-14.4-127.5-45.8-183.5-83.1,14.9-20.8,27.6-43.5,39.6-66,1.1-1.4,3.4-2.2,5.1-2.8.7-1.4,4.5-2.3,5.6-.9,3.1,1.5,6.3.8,9.5-2,3.5,0,6.8-1,9.7-3.2,4.2.4,7.4-.3,9.6-2.3.6-1.2,2.1-1.2,2.8,0,1.1,0,2-.2,2.8-.9,1.5-1,4.9-.8,6.5,0,3.2.9,6,.6,8.4-.9,1.1-1.2,4.9-1.7,5.6,0,1.3,0,2.6-.4,3.7-.9,2.2-1.1,3.8-1.1,4.7,0,1.1,0,2-.2,2.8-.9,1.8-.5,5-.9,6.5,0,3.2,1.7,7,1.5,10.2-.9.6-1.5,3.9-1.4,4.7,0,2.7,1,3.3.9,5.6-.9,2.4-1.2,4.3-1.2,5.6,0,1.4.8,2.7.5,3.7-.9,2.6-.9,4.8-.9,6.5,0,2.8,1.7,6.8,1.1,9.3-.9,1.4-1.2,4.5-1.5,5.6,0,2.9,1.2,5,1.1,7.4-.9,2.2-.8,5.7-1.8,7.4,0,1.4.8,2.7.5,3.7-.9,2.9-.9,5.4-.9,7.4,0,1.4.8,2.7.5,3.7-.9,4.1-.9,7.8-.9,11.2,0,2.3,1.6,7.9,1.6,11.2-.9,2.6-1,6.2-1.7,8.4,0,1.5,1.1,3.1.8,4.7-.9,4-1.1,7.4-1.1,10.2,0l2.8-.9c34.8-2.2,69.7-3.7,104.6-4.6l6.2.9c2.7-.7,5.6-.8,8.4,0,2-.3,4.2-.6,6.5-.9,11.6-1,23-1,34.4,0l4.7-.9c113.2-2.4,226.7-1.1,339.6,6.5Z"/>
      <path class="st20" d="M655.6,495.1c1.3-1.9,1,1.9.8,1.8s-.5-3.1.6-2.8h81.3c.5,1.8,1.2,3.3,2,4.7,16.4,54,55.4,88.9,112.1,95.8,48.9,6,98.9,7.4,147.9,11.2,51.8-4.2,93.7-36.1,111.9-84.4s1.2-5.1,2-7.3-.3-1.6,1.9-1.3c15.2,32.9,27.2,67,35.9,102.3,14.2,13.1,29.2,25.5,40.8,41.1.7.9,4.1,4.8,3.3,5.5-32.4-3.5-64.8-7.4-97.2-10.2-253-22.4-516.4-23-769.5-2.8-43.7,3.5-87.2,8.2-130.7,13,7.8-11.7,17.7-22.5,27.9-32.1s14.9-11.2,16.6-14.1c3.1-5.5,7.4-28.4,9.9-36.6s3.3-10.3,5.1-15.4c6-17.3,13.7-33.8,20.5-50.7,2.3-.3,1.5,0,1.9,1.3.7,2,.9,4.5,1.7,6.6,17.7,48.5,60.4,81,112.2,85.1,49.1-3.7,99-5.3,147.9-11.2,46.2-5.6,85.6-32.1,104.6-75,3.5-8,5.1-17.1,8.5-24.5Z"/>
      <path class="st20" d="M919,307.1l-.4,1.8c-28-4.8-55.5-8.9-83.5-1.6-35,9.2-64,33.7-80.6,65.4s-3.8,10.7-5.2,12.5-1.6,1-2.7,1l-99.5-.2c-3.9-7.1-6.8-14.6-11-21.6-16.6-27.6-44.7-49-75.9-57.1-28.5-7.4-55.4-2.8-84,1.1-.4-1.9,1.3-1.5,2.5-2.1,35.3-20.1,76.6-33.1,115.7-43.4,8.3-33.2,18.4-66.8,40-94,11.3-14.2,25.6-22.8,39.5-34l8.4,53c31.2-25,59.1-54.3,96.8-69.8.9.6,1.2,1.2,1.4,2.3,2.1,12.9.6,27.9-2.2,40.7-7.2,33.9-31.2,59.2-49,87.8l2.3,1.3c65.5,9.5,128.9,25.5,187.5,56.8Z"/>
      <path class="st20" d="M514.9,328.8c58.5-4.1,105.2,31.1,113.6,89.6s9.7,76.4-15.3,110.1c-17.6,23.6-42.4,37.2-71.6,41-47.7,6.2-98.2,7.2-146.1,11.2-49.5-4.4-86.9-40-94.3-89-6.1-40.3-8.2-76.2,18.5-109.6,18.3-22.9,41.9-33.1,70.4-37.6,38.8-6,86-13,124.8-15.7Z"/>
      <path class="st20" d="M855.5,328.8c6.8-.7,16.1-.7,23-.3,45.3,2.9,92.9,13.8,138.4,18,52.1,11.6,83.6,56,80.8,109.1-.6,12.2-2.6,30.5-5,42.5-10.1,52-55.8,84.9-108.1,82.6-38.9-1.7-83-6.1-121.9-10.2-31.5-3.3-55.3-11.8-76.3-36.3s-25.8-72.6-19.9-114.8c6.5-46,41-85.9,89-90.6Z"/>
      <path class="st15" d="M1175.8,281.1c2.7.9,8.7,4,9.8,6.5,1.7,3.9-32.3,62-37.3,69.7-7.4,11.5-21.6,33.7-31.1,42.4-.9.8-1.3,1.7-2.8,1.4-1.8-5.7-4.4-11.2-7.3-16.4-2.5-4.4-12.5-17.1-13.2-19.8-4.6-6.9-10.2-12.5-16.7-16.7-18.5-15.1-39.8-23-63.1-27.7-3.4-.7-8.3-.3-11.6-1.4-3.8-1.3-9.5-6.8-12.8-9.5,21.6-8.3,43.5-14.8,66.1-20l2.4.2c38.5-8.2,79.3-14.6,117.6-8.6Z"/>
      <path class="st15" d="M262.9,278.3c-.3,1.5-1.1,1.4-1.9,0l-9,.5,1.5.4,2.2.8c6.1-1.4,11.8-1,17.1,1,10.2-1.3,22.8.3,32.3,3.6,4.9-.4,11.3-.2,14.9,2.4l6.5.3c18.5,4.7,37,9.5,55.5,14.2,6.9,2.2,15.5,4.1,21.9,7.4s1.8-.5,1.3,1.9c-4.6,1-8.1,6.4-12.1,7.9-6.6,2.6-20.5,3-29.1,5.4-16.5,4.6-34.2,13.9-47.3,24.9-1.3.7-1.8,1-1,0,0-1.1-15.3,13.8-14.8,15.8-3.2,3.9-7.4,10.3-10,14.6-4.1,6.8-6.6,14.2-10.2,20.5-.3.6,0,1.8-1.6,1.2s-15.8-20-18-23c-20.2-27.7-38-58.6-51.4-90.1.1-1.3,5.4-5.5,6.8-6.3,8.9-4.8,30.8-4.6,41.2-4.5,1.6,0,4.1-.6,5.1.9Z"/>
      <path class="st5" d="M647.3,669.1h100.5c47.3.3,94.3,2.4,141.4,2.8l7.4.9c6,0,12.5.9,18.1.9h14.9c4.6,0,10.9.9,16.3.9l8.4.9c28,.2,56.3,3.5,84.2,5.6,28.8,2.1,57.9,3.2,86.5,6.5,10.1,1.2,20,3,29.8,5.6l-2.3.9c-3.1-1-9.5-2.1-13-2.8-1.9,0-3.8-.3-5.6-.9-.3,0-.6,0-.9,0l-7.4-.9c-1.2,0-2.5,0-3.7,0l-6.5-.9c-.6,0-1.2,0-1.9,0l-8.4-.9c-.3,0-.6,0-.9,0l-9.3-.9c-.9,0-1.9,0-2.8,0l-7.4-.9c-1.2,0-2.5,0-3.7,0l-7.4-.9c-.9,0-1.9,0-2.8,0l-9.3-.9c-7.5,0-14.8-.8-22.3-.9-.8.4-1.4.4-1.9,0-2.8-.3-5.6-.7-8.4-.9-1.5,1.3-3.1,1.3-4.7,0l-11.2-.9c-.5,1.4-1.3,1.4-1.9,0-4-.6-8-.9-12.1-.9-1.7,1.3-4.6,1-5.6-.9-4.1,0-8.2-.4-12.1-.9-.5.8-1.2.5-1.9,0-4.8-.4-9.4-.7-14-.9-1.5.7-3.1.7-4.7,0-4.1-.4-8.2-.7-12.1-.9-1.6.7-3.1.7-4.7,0-4.8-.4-9.4-.7-14-.9-.9.7-1.9.7-2.8,0-6-.4-11.9-.7-17.7-.9-.6.7-1.3.7-1.9,0-6.3-.4-12.5-.7-18.6-.9-2.5.7-5,.8-7.4,0-6.5-.3-13.1-.6-19.5-.9-1.8,1.8-3.8,1.8-5.6,0-7.8-.6-15.9-.9-24.2-.9-.9,1.8-1.9,1.8-2.8,0-11.1-.6-22.6-.9-34.4-.9-6.5.7-13,.7-19.5,0h-156.3c-6.5.6-13,.7-19.5,0-11.8,0-23.3.3-34.4.9-1.2.7-2.5.7-3.7,0-8.3,0-16.4.3-24.2.9-1.5.7-3.1.7-4.7,0-6.4.3-13,.6-19.5.9-2.1.8-4.3.7-6.5,0-6.4.3-13,.6-19.5.9-.6.7-1.2.7-1.9,0-5.8.3-11.7.6-17.7.9-.6.7-1.2.7-1.9,0-4.9.3-9.8.6-14.9.9-1.5.7-3.1.7-4.7,0-4.2.3-8.6.6-13,.9-1.2.7-2.5.7-3.7,0-4.6.3-9.2.6-14,.9-.6.7-1.2.7-1.9,0-.6-.1-1-.2-.9-.9,8.8-.5,17.7-1.8,27-1.9l9.3-.9c5.1,0,11.1-.9,15.4-.9h15.8c5.6,0,12.2-.9,18.1-.9l7.4-.9c47.2-.4,94.2-2.5,141.4-2.8Z"/>
      <path class="st12" d="M512.3,1080.3c5.6,1.3,11.1,2.5,16.7,3.7l4.7.9c3.5.7,6.8,1.3,10.2,1.9,1.4.7,3,1,4.7.9,3.8.6,7.3,1.4,11.2,1.9l11.2,1.9c.6,0,1.3,0,1.9,0,1.5.6,3,.9,4.7.9.3,0,.6,0,.9,0l5.6.9c.3,0,.6,0,.9,0l5.6.9c.9,0,1.9,0,2.8,0l5.6.9c.3,0,.6,0,.9,0l7.4.9c.3,0,.6,0,.9,0l7.4.9c1.2,0,2.5,0,3.7,0l6.5.9c.9,0,1.9,0,2.8,0l10.2.9c.6,0,1.2,0,1.9,0l13,.9c.9,0,1.9,0,2.8,0l21.4.9c26.1,0,52.1-2.1,78.2-1.9,2.3,0,4.7-.1,7,0s3.5-.7,3.2.9c-67.1,4.9-134.9,2.9-201.3-7.6s-37.7-7.3-56.4-11l3.7-.9Z"/>
      <path class="st21" d="M403.5,677.4c.8.3.8.6,0,.9.1.4-.2.7-.9.9-1.1.4-2.3.7-3.7.9-1,1.2-2,1.4-2.8,0l-12.1.9c-.5,1.4-1.3,1.4-1.9,0-3.7.8-7.5.8-11.2,0-3.3.3-6.8.6-10.2.9-.9.7-1.9.7-2.8,0-2.7.2-5.4.6-8.4.9-1.2.8-2.5.7-3.7,0-3.3.3-6.8.6-10.2.9-.6.7-1.2.7-1.9,0-3,.2-6.1.6-9.3.9-.6.7-1.2.7-1.9,0-2.7.2-5.4.6-8.4.9-.9.7-1.9.7-2.8,0-2.7.2-5.4.6-8.4.9-.9.7-1.9.7-2.8,0-3,.2-6.1.6-9.3.9-.2.6-.5.6-.9,0-2.3.2-4.8.6-7.4.9-1.2.3-2.4.6-3.7.9-1.3,1.3-5.3,2.2-7.4,1.9-.4.7-.8,1.4-1.4,1.6-3,1.4-18.8,6.8-20.7,6.4-.7-.1-1.4-.4-2.1-.6-1.4.4-3.6.3-5.6.9l-2.3-.9c12.9-2.7,27.3-10,40.1-12,8.1-1.3,18.4-1.2,26.8-2,31.9-3,64.9-5.4,97.3-7.4Z"/>
      <path class="st15" d="M262.9,278.3c.6,0,1.2,0,1.9,0l11.2.9c1.2,0,2.5,0,3.7,0l6.5.9c.3,0,.6,0,.9,0l6.5.9c.3,0,.6,0,.9,0l5.6.9c.6,0,1.2,0,1.9,0l4.7.9c.3,0,.6,0,.9,0l9.3,1.9c22,4.4,43.8,10,65.1,16.7-.9,1.8-3.1.7-4.5.3-15-4.2-28.9-10.2-44.3-10.5-.4,0-3.5-3.2-7.8-3.5-2.3-.2-4.4,1-6.1.8s-.5-1.6-1.9-2c-6.5-2.1-7.2-.6-12.2-.2-2,.2-2.1-2.2-3-2.4-4.2-1.2-18.8-3.1-23.1-2.9-2.8,0-4.7,1.8-6.4,1.7s-2.4-2.4-3.1-2.6c-3.8-.8-8.6.5-12.2.7-1.8,0-3.2.6-3.9-1.7,2.3-.7,4.8-1,7.4-.9.6,0,1.2,0,1.9,0Z"/>
      <path class="st37" d="M655.6,495.1c.2-.4-.6-1.7.6-1.9h82.6c1.6.4,1.2,4.5,1.5,5.6l-1.1.6-1.4-4.4h-80.8s-.5,2.4-.5,2.4l-.9-2.3Z"/>
      <path class="st23" d="M1133,278.3c8-.8,16.2-.9,24.2,0,.5-1.8,1.3-1.8,1.9,0,2.9.4,5.7.7,8.4.9,2.3.3,6.2,1.1,8.4,1.9l-26.5-1.9c-30.6-.7-59.2,5.8-88.9,10.8-1.4.2-3.8,1.2-4.7-.5,7.4-1.7,14.9-3.1,22.3-4.7,1.7,0,3.2-.3,4.7-.9,2.6-.5,4.7-1.5,6.5-1.9.3-.8.6-.8.9,0l4.7-.9c.3-.8.6-.8.9,0l5.6-.9c.9-1.1,1.9-1.2,2.8,0,1.8-.7,3.8-.8,5.6,0,1.8-.3,3.6-.6,5.6-.9,1.1-.8,2.6-.7,3.7,0,3.9-.7,7.9-1,12.1-.9.5-1.8,1.3-1.8,1.9,0Z"/>
      <path class="st10" d="M1089.3,282l-4.6-.9c28.9-4,58.4-8.3,87.5-3.7,0,1.7-3.5.9-4.6.9-2.7.8-5.7.8-8.4,0-.6,0-1.2,0-1.9,0-7.8-1.1-16.2-.7-24.2,0-.6,0-1.2,0-1.9,0-4.1.4-8.1.4-12.1,0-2.3.3-4.8.6-7.4.9-.6.7-1.2.7-1.9,0-1.8.3-3.6.6-5.6.9-.9,0-1.9,0-2.8,0l-5.6.9c-.3,0-.6,0-.9,0l-4.7.9c-.3,0-.6,0-.9,0Z"/>
      <path class="st21" d="M747.8,669.1c-33.5-.2-67-.2-100.5,0h100.5Z"/>
      <path class="st25" d="M1093.9,364.8c-5.8-5.3-10.6-11.8-16.7-16.7.8-2.2,2.5.2,3.3.9,4.9,4.6,12.3,11.1,13.5,15.8Z"/>
      <path class="st8" d="M326.2,1012.4c7.4,3.9,14.8,7.6,22.3,11.2-.9,1.9-2.9.4-4.1-.1-5.6-2.4-13.4-6.3-18.6-9.3-1.7-1-2.6-2,.3-1.7Z"/>
      <path class="st13" d="M316.9,349c-4.9,4.1-11.8,10.9-15.8,15.8-2.2-.8.2-2.5.9-3.3,3.6-3.8,7.8-8.1,11.6-11.6.8-.7,2.5-3.1,3.3-.9Z"/>
      <path class="st0" d="M1252.1,829.1c-5.8-5.5-11.3-10.9-16.7-16.7.4-1.9,2.4,1,2.8,1.4,3.4,3.4,6.8,6.8,10.2,10.2l3.7,5.1Z"/>
      <path class="st15" d="M276,279.2c-3.5,0-8.4.8-11.2-.9,3.4-.2,8.5-.7,11.2.9Z"/>
      <path class="st19" d="M412.8,677.4l.9.9c-3.1.8-7.1.6-10.2,0v-.9c3.1-.2,6.2.2,9.3,0Z"/>
      <path class="st21" d="M449.1,674.6c-2.1,1.7-6.4.9-9.3.9,2.1-1.7,6.4-.9,9.3-.9Z"/>
      <path class="st15" d="M1167.4,278.3v.9c-2.7-.3-6.5,1-8.4-.9,2.8,0,5.6,0,8.4,0Z"/>
      <path class="st38" d="M274.1,243.9c2.7.3,5.9-.6,8.4.5,0,.8-7.1.5-8.4.5v-.9Z"/>
      <path class="st21" d="M954.3,675.6c-2.6,0-6.5.8-8.4-.9,2.6,0,6.5-.8,8.4.9Z"/>
      <path class="st21" d="M505.8,671.8c-1.5,1.7-5.1.9-7.4.9,1.5-1.7,5.1-.9,7.4-.9Z"/>
      <path class="st21" d="M896.6,672.8c-2.3,0-5.9.7-7.4-.9,2.3,0,5.9-.7,7.4.9Z"/>
      <path class="st15" d="M293.6,281.1c-2,0-5.2.7-6.5-.9,2,0,5.2-.7,6.5.9Z"/>
      <path class="st15" d="M286.2,280.1c-2,0-5.2.7-6.5-.9,2,0,5.2-.7,6.5.9Z"/>
      <path class="st15" d="M300.2,282c-1.8,0-4.6.7-5.6-.9,1.8,0,4.6-.6,5.6.9Z"/>
      <path class="st15" d="M306.7,282.9c-1.5,0-3.9.6-4.7-.9,2.2.2,3.6.8,4.7.9Z"/>
      <path class="st33" d="M578.4,1127.8c.3-1.7,3-.7,4.6-.9v.9s-4.6,0-4.6,0Z"/>
      <path class="st15" d="M316.9,284.8l-9.3-1.9c3.3.5,6.1,1.2,9.3,1.9Z"/>
      <path class="st15" d="M1082.7,283.9c-.8,1.5-3.2.9-4.7.9,1.5-.3,3.1-.6,4.7-.9Z"/>
      <path class="st21" d="M731.9,815.1c10.6,2.1,22,6.6,27.2,17,13.4,27.1-24.5,57.3-47.5,64-.4.4,0,1.2-.1,1.7-.2,15.1.2,30.7.9,45.6,3.8,7.4,14.8,12.3,22.8,13,26,2.4,48.6-12.1,65.1-30.7,7.2-8.2,14.3-24.7,28.4-12.6,8.8,7.6,4.2,16.4-1.1,24-27.2,39.3-87.7,66.3-129.8,33.4-31.3,24.5-73.6,15.8-103.5-6.3-9.9-7.3-25.8-22.7-30.8-33.9-.7-3.4-1-6.8-.9-10.2,1.1-4.6,2.4-7.2,7.1-9.2,14.5-6.4,19,7.7,26.4,16.2,15.7,18.1,40,31.8,64.6,29.2,8.3-.9,21.8-7,22.9-16.1,1.6-13.5-1.2-30.3-.1-44.1-21.2-6.5-54.3-31.9-49.7-56.9,2.1-11.3,14.3-22.2,25.6-23.2,4.6-1.3,8.8-1.6,12.6-.9,0-.5.2-.8.3-.9,17-.9,35.3-1,51.8.9,2.5.1,5.1.1,7.9,0Z"/>
      <path class="st16" d="M731.9,815.1c-2,2.7-6.4,0-7.9,0h-52.1c-2.5,0-9.9.7-12.6.9,4.6-1.6,10.4-2.5,15.3-2.8,16-1,42-1.2,57.3,1.9Z"/>
      <path class="st7" d="M712.4,943.5c-.3-.5-1.3-1.1-1-2.2,1.2-13.8-1.5-29.9,0-43.4l.9,45.6Z"/>
      <path class="st21" d="M678,1100.8c-6.9,0-14.8.8-21.4-.9,6.9,0,14.8-.8,21.4.9Z"/>
      <path class="st29" d="M563.5,930.5c-.8-1.8-1.7-2.9-1.9-5.1s.5-3.3,1-5.1l.8.6c-.5,3.1,1.8,7.4.2,9.6Z"/>
      <path class="st21" d="M653.8,1099.8c-4.1,0-9.5.8-13-.9,4.1,0,9.5-.8,13,.9Z"/>
      <path class="st21" d="M638.9,1098.9c-3.2,0-7.8.8-10.2-.9,3.2,0,7.8-.8,10.2.9Z"/>
      <path class="st21" d="M615.6,1097c-2.3,0-5.9.7-7.4-.9,2.3,0,5.9-.7,7.4.9Z"/>
      <path class="st21" d="M607.2,1096.1c-2.3,0-5.9.7-7.4-.9,2.3,0,5.9-.8,7.4.9Z"/>
      <path class="st21" d="M625.9,1098c-2,0-5.2.7-6.5-.9,2,0,5.2-.7,6.5.9Z"/>
      <path class="st21" d="M571,1091.5c-3.7-.4-7.7,0-11.2-1.9,3.5.4,8.1,0,11.2,1.9Z"/>
      <path class="st21" d="M584,1093.3c-1.8,0-4.6.6-5.6-.9,1.7.2,4.5-.8,5.6.9Z"/>
      <path class="st21" d="M590.5,1094.3c-1.8,0-4.6.6-5.6-.9,1.8,0,4.6-.6,5.6.9Z"/>
      <path class="st21" d="M598.9,1095.2c-1.8,0-4.6.6-5.6-.9,1.8,0,4.6-.6,5.6.9Z"/>
      <path class="st21" d="M533.7,1085l-4.7-.9c1.5.3,3.1.6,4.7.9Z"/>
      <path class="st21" d="M577.5,1092.4c-1.5,0-3.9.6-4.7-.9,2,.2,3.9.8,4.7.9Z"/>
      <path class="st21" d="M548.6,1087.7c-1.5,0-3.9.6-4.7-.9,1.6.3,3.3.7,4.7.9Z"/>
      <path class="st21" d="M812.9,786.3c5.6-33.6,43.6-58.2,74.2-66.7,45.6-12.7,96-5.9,125.1,34.4,9.2,12.7,29,52.8-1.6,50-11.6-1.1-14.5-9-21.4-15.8-40.6-40.4-89.7-35.3-133.8-3.5-7.9,5.7-16.4,14.6-23.9,19.4-2.9,4.6-11.5,6.4-14.9.9-2.6-4.3-2.8-4.3-3.7-9.3v-9.3Z"/>
      <path class="st21" d="M554.2,742.6c6,3.8,10.6,8.5,14,14,6.6,8.2,12.2,18.4,14,28.8v11.2c-1.8,8.1-5.7,11.6-14.2,9-7-2.1-24.1-18.3-32.1-23.8-38.6-26.2-86.3-33.3-123.6-.1-8.6,7.6-14.3,20.9-27,22.3-25.4,2.8-16.8-24.6-9.6-38.4,31.6-60.8,110.8-63.5,164.8-32.1,4.2,2.5,9.6,7.5,13.7,9.1Z"/>
      <path class="st25" d="M668.7,670.9h70.7c18.1.5,36.7.8,55.8.9,11.5-.7,23-.7,34.4,0,.9,0,1.9,0,2.8,0,7.8.6,15.9.9,24.2.9,1.9,0,3.7,0,5.6,0,2,.3,3.8.6,5.6.9,7.2.4,14.3.7,21.4.9.6-.7,1.3-.7,1.9,0,6.3.4,12.5.7,18.6.9,2.5-.7,5-.8,7.4,0,4.4.4,8.8.7,13,.9,1.6-.7,3.1-.7,4.7,0,4.8.4,9.4.7,14,.9.6-.7,1.3-.7,1.9,0l2.8.9c.8.3.8.6,0,.9-112.9-6-226.3-7.9-339.6-6.5l-4.7.9c-11.5.2-23,0-34.4,0-2.2.7-4.4.8-6.5,0-2.7.3-5.4.6-8.4.9-36.9,0-73.9,2.1-110.7,3.7-.2.9-1.1,1.2-2.8.9-3.2-.2-7-.1-10.2,0-1,1.6-3.6,2.7-4.7.9-2.8.1-5.6-.1-8.4,0-2.6,2.6-8.2,2.7-11.2.9-3.7.2-7.5-.2-11.2,0-.8,1.6-2.5,2.4-3.7.9-2.5.2-5-.2-7.4,0-.8,1.6-2.5,2.4-3.7.9-2.5.2-5-.2-7.4,0-1.5,2.2-5.3,2.3-7.4.9-1.8.1-3.7-.1-5.6,0-2.1,2-7,2.7-9.3.9-2.1.2-4.4-.2-6.5,0-.8,1.6-2.5,2.4-3.7.9-1.8.1-3.7-.1-5.6,0-1.2,1.9-3.8,2.4-5.6.9-1.5.1-3.1-.1-4.7,0-2.7,2.3-7.3,3-10.2.9-2.1.2-4.4-.2-6.5,0-.1,1.1-1,1.4-2.8.9-1.5-.1-3.2,0-4.7,0-1.1.9-2.6,2-3.7.9-.9-.3-4.1,0-5.6,0-1.5,2-5.2,2.3-6.5,0-1.1.5-2.1.5-2.8,0-.8-.3-.8-.6,0-.9.9-.7,1.9-.7,2.8,0,2.7-.3,5.4-.6,8.4-.9.6-.7,1.2-.7,1.9,0,3-.2,6.1-.6,9.3-.9.6-.7,1.2-.7,1.9,0,2.7-.2,5.4-.6,8.4-.9.9-.7,1.9-.7,2.8,0,2.3-.3,4.8-.6,7.4-.9,1.2-.8,2.5-.7,3.7,0,3.3-.3,6.8-.6,10.2-.9.6-.7,1.2-.7,1.9,0,3-.2,6.1-.6,9.3-.9.9-.7,1.9-.7,2.8,0,3-.2,6.1-.6,9.3-.9,1.2-.8,2.5-.7,3.7,0,3.6-.3,7.3-.6,11.2-.9.6,0,1.2,0,1.9,0l12.1-.9c.9,0,1.9,0,2.8,0,3.4-.3,6.8-.6,10.2-.9,1.5-.7,3.1-.7,4.7,0,4.2-.3,8.6-.6,13-.9.9-.7,1.9-.7,2.8,0,4.6-.3,9.2-.6,14-.9.9-.7,1.9-.7,2.8,0,4.6-.3,9.2-.6,14-.9,1.8-.8,3.7-.7,5.6,0,3.9-.2,8-.6,12.1-.9,2.5-.8,5-.7,7.4,0,6.4-.3,13-.6,19.5-.9.6-.7,1.2-.7,1.9,0,6.4-.3,13-.6,19.5-.9,2.1-.8,4.3-.7,6.5,0,6.4-.3,13-.6,19.5-.9,3.1-.7,6.2-.7,9.3,0,11.5,0,22.7-.3,33.5-.9,1.5-.7,3.1-.7,4.7,0,18.9-.7,37.8-1,56.8-.9h12.1Z"/>
      <path class="st13" d="M969.2,678.4c4.1.4,8.2.7,12.1.9,4-.5,8.1-.5,12.1,0,1.9.3,3.7.7,5.6.9,4.1,0,8.1.4,12.1.9.6,0,1.2,0,1.9,0l11.2.9c1.6,0,3.1,0,4.7,0l1.9.9c.8.3.8.6,0,.9-22.5-.4-45.7-3.4-67.9-4.7-.1-.5.5-.8,1.9-.9.2-.6.5-.6.9,0,1.2-.7,2.5-.7,3.7,0Z"/>
      <path class="st15" d="M271.3,691.4c1.7,0,3.2,0,4.7,0-.9,5.7-6.6,2.6-9.4,3.2s-1.9,2.3-3.4,3.2c-2.9,1.6-4.3,0-6.2.2s-6.6,8.1-9.9,1c8-2.5,16-5.5,24.2-7.4Z"/>
      <path class="st9" d="M831.5,804c3-.2,2,.6.3,1.7-5.6,3.8-10.6,7.6-15.6.1-.3-.4.4-.9.4-.9,6.2,2.4,9.2,2.6,14.9-.9Z"/>
      <path class="st15" d="M423,680.2c-.6,4.3-5.4,3.5-8.2,3.1-1.7-.3-3.5.3-2.9-2.2,3.4-.2,7.3-.7,11.2-.9Z"/>
      <path class="st13" d="M568.2,756.5c-4.1-5.2-9.5-9.2-14-14,5,2,8.7,5.8,13.1,10.7.9,1.1,2.5,1.8.9,3.3Z"/>
      <path class="st15" d="M329.9,686.7c.3,3.9-10.3,5.1-10.2.9,3.3-.3,6.8-.7,10.2-.9Z"/>
      <path class="st15" d="M365.3,683.9c1.3,3.7-8.7,3.2-9.3,2.8s0-1.3,0-1.9c2.9-.2,6.2-.7,9.3-.9Z"/>
      <path class="st13" d="M278.8,689.5c2.5-.9,5.9-.8,8.4,0,.9,0,1.9,0,2.8,0,1.1,1.8-.5,2.2-1.9.9-.9-.3-5.2-.1-6.5,0-.1,1.1-1,1.4-2.8.9-.9,0-1.9,0-2.8,0s-3.1,2.1-4.7,0c2.6-.6,4.5-1.6,7.4-1.9Z"/>
      <path class="st26" d="M582.1,796.5c-1.6-2.7-1.5-8.7,0-11.2.9,5.3,1.2,5.7,0,11.2Z"/>
      <path class="st15" d="M296.4,689.5c.2,3.4-4.3,3.3-6.8,2.6s-1.4-1.6-1.5-1.7l1.9-.9c2.2,0,4.4-.1,6.5,0Z"/>
      <path class="st15" d="M378.3,683c.2,3.8-6.2,4-7.4.9,1.9-.1,4.8-.8,7.4-.9Z"/>
      <path class="st4" d="M812.9,795.6c-.9-4.9-.8-4.5,0-9.3,1.6,2.1,1.5,7.4,0,9.3Z"/>
      <path class="st15" d="M340.2,685.8c-.5,3.6-3.9,4-5.6.9,1.2,0,3.4-.8,5.6-.9Z"/>
      <path class="st15" d="M436,679.3c.3,3.4-5.5,4.3-4.7.9.9,0,2.7-.9,4.7-.9Z"/>
      <path class="st40" d="M964.6,678.4l-1.9.9c-3.1-.2-6.2.2-9.3,0v-.9c3.6-.7,7.6-.8,11.2,0Z"/>
      <path class="st21" d="M1104.2,687.7c-2.9,0-7.2.8-9.3-.9,2.9,0,7.2-.8,9.3.9Z"/>
      <path class="st21" d="M1070.7,684.9c-2.9,0-7.2.8-9.3-.9,2.9,0,7.2-.8,9.3.9Z"/>
      <path class="st15" d="M389.5,682.1c-.2,3-2.4,4-3.7.9.7,0,2.1-.8,3.7-.9Z"/>
      <path class="st31" d="M1037.2,683c.6,0,1.2,0,1.9,0-1.8,1.6-5.8,1-8.4.9v-.9c1.9-.9,4.4-.6,6.5,0Z"/>
      <path class="st13" d="M568.2,673.7c.8.3.8.6,0,.9-2.8,0-5.6,0-8.4,0,1.8-1.7,5.8-.9,8.4-.9Z"/>
      <path class="st15" d="M400.7,681.2c-.2,3-2.4,4-3.7.9.7,0,2.1-.8,3.7-.9Z"/>
      <path class="st15" d="M349.5,684.9c-.2,3-2.4,4-3.7.9.8,0,2.2-.8,3.7-.9Z"/>
      <path class="st21" d="M1113.5,688.6c-2.6,0-6.5.8-8.4-.9,2.6,0,6.5-.8,8.4.9Z"/>
      <path class="st21" d="M1092.1,686.7c-2.3,0-5.9.7-7.4-.9,2.3,0,5.9-.7,7.4.9Z"/>
      <path class="st15" d="M305.7,688.6c-2.7,4.9-3,1.2-3.7.9,1.1-1.2,2.4-.9,3.7-.9Z"/>
      <path class="st21" d="M1133,690.5c-2.4,0-5.9.8-7.4-.9,2.3,0,5.9-.7,7.4.9Z"/>
      <path class="st21" d="M1080.9,685.8c-2.3,0-5.9.7-7.4-.9,2.3,0,5.9-.7,7.4.9Z"/>
      <path class="st23" d="M574.7,673.7c-1.3,1.6-4.5.9-6.5.9v-.9c2.2,0,4.3,0,6.5,0Z"/>
      <path class="st21" d="M1121.8,689.5c-2,0-5.2.7-6.5-.9,2,0,5.2-.7,6.5.9Z"/>
      <path class="st15" d="M449.1,678.4c.5,3.8-2,1-2.8.9.4-1.2,1.8-.9,2.8-.9Z"/>
      <path class="st21" d="M1139.5,691.4c-1.8-.1-4.5.7-5.6-.9,2.6.2,3.4.5,5.6.9Z"/>
      <path class="st15" d="M281.6,690.5c.4,3.8-1.9,1-2.8.9.9-.5,1.8-.8,2.8-.9Z"/>
      <path class="st15" d="M313.2,687.7c.5,3.8-2,1-2.8.9.9-.5,1.8-.8,2.8-.9Z"/>
      <path class="st23" d="M613.8,672.8c-.4,0-2.5.9-4.7.9.8-1.5,3.2-.9,4.7-.9Z"/>
      <rect class="st35" x="638.9" y="632.8" width="118.2" height=".9"/>
      <path class="st21" d="M576.2,511.5c-9.5,9.9-23.8,16.9-37.5,18.8-43.8,6.2-90.7,5.1-134.8,11.3-33.7-.8-58.4-22.4-63.7-55.5-7-43.7-6.6-84.7,42.7-100.4,45.1-4.2,93.2-15.5,138.2-18.1,26.2-1.5,51.7,11.6,62.7,35.9,6.9,15.3,11.7,63.4,8.1,79.4-2.1,9.2-9.2,21.7-15.7,28.5Z"/>
      <path class="st21" d="M860.1,367.9c4.2-.5,9.4-.5,13.7-.2,43.3,2.5,89.2,13.7,132.8,17,24.9,4.1,45.8,24.3,50.6,49,3.1,16.4-1.2,58.1-8.7,73.3-10.6,21.4-32.8,34.1-56.5,34.8-44.3-6.1-91.7-5.1-135.7-11.3-36-5.1-56.3-34.9-54.5-70.1,2.1-40.4,9.3-86.8,58.4-92.3Z"/>
      <path class="st14" d="M261.1,278.3c-1.7,0-4.7.8-7.4.9-3.5.1-7.2.1-10.7,0s-3.5.7-3.2-.9h21.4Z"/>
      <path class="st21" d="M775.7,670.9c-12.1.8-24.2.7-36.3,0-4.3,0-8.7,0-13,0h-57.7c-4,0-8.1,0-12.1,0-12.5.2-24.9.2-37.2,0h156.3Z"/>
      <path class="st15" d="M619.3,670.9h37.2c-18.6.1-37.9.9-56.8.9-.8-.3-.8-.6,0-.9,6.5,0,13,0,19.5,0Z"/>
      <path class="st15" d="M775.7,670.9c6.5,0,13,0,19.5,0,.8.3.8.6,0,.9-16.9,0-33.8.2-50.7,0-1.6,0-4.1.6-5.1-.9,12.1,0,24.2,0,36.3,0Z"/>
      <path class="st21" d="M829.6,671.8c-11.5,0-23,0-34.4,0v-.9c9.8,0,19.6-.1,29.3,0s4.1-.6,5.1.9Z"/>
      <path class="st21" d="M599.8,670.9v.9c-1.6,0-3.1,0-4.7,0-9.9.7-19.9.7-29.8,0,1-1.5,3.5-.9,5.1-.9,9.8-.1,19.6,0,29.3,0Z"/>
      <path class="st15" d="M565.4,671.8c9.9,0,19.9,0,29.8,0-1,1.5-3.5.9-5.1.9-9.5,0-18.9,0-28.4,0-.8-.3-.8-.6,0-.9,1.2,0,2.5,0,3.7,0Z"/>
      <path class="st21" d="M856.6,672.8c-6.3,0-12.7,0-19.1,0-1.6,0-4.1.6-5.1-.9,6.3,0,12.7,0,19.1,0,1.6,0,4.1-.6,5.1.9Z"/>
      <path class="st21" d="M561.6,671.8v.9c-3.1,0-6.2,0-9.3,0-5,.6-9.9.9-14.9,0,1-1.5,3.5-.9,5.1-.9,6.4,0,12.7,0,19.1,0Z"/>
      <path class="st15" d="M881.8,673.7c2.5,0,5,0,7.4,0,.8.3.8.6,0,.9-6.9,0-14.8.8-21.4-.9,4.6-.8,9.3-.8,14,0Z"/>
      <path class="st15" d="M537.5,672.8c5,0,9.9,0,14.9,0-5.9,1.7-13.3.9-19.5.9-.8-.3-.8-.6,0-.9,1.6,0,3.1,0,4.7,0Z"/>
      <path class="st21" d="M881.8,673.7c-4.6,0-9.3,0-14,0-1.8,0-4.6.6-5.6-.9,6.3,0,13.6-.8,19.5.9Z"/>
      <path class="st21" d="M506.7,673.7c.8.3.8.6,0,.9-.6,0-1.2,0-1.9,0-5.9.7-11.8.8-17.7,0,5.9-1.7,13.3-.9,19.5-.9Z"/>
      <path class="st15" d="M513.3,673.7c4.3-.5,8.7-.9,13,0-5.9,1.7-13.3.9-19.5.9v-.9c2.2,0,4.3,0,6.5,0Z"/>
      <path class="st13" d="M487.2,674.6c5.9,0,11.8,0,17.7,0-5.9,1.7-13.3.9-19.5.9-.8-.3-.8-.6,0-.9.6,0,1.2,0,1.9,0Z"/>
      <path class="st21" d="M532.8,672.8v.9c-2.2,0-4.3,0-6.5,0-4.3,0-8.7,0-13,0,5.9-1.7,13.3-.9,19.5-.9Z"/>
      <path class="st21" d="M907.8,674.6c-5.6.8-11.2.7-16.7,0-.6,0-1.2,0-1.9,0v-.9c6,0,13-.8,18.6.9Z"/>
      <path class="st13" d="M907.8,674.6c.6,0,1.2,0,1.9,0,.8.3.8.6,0,.9-6,0-13,.8-18.6-.9,5.6,0,11.2,0,16.7,0Z"/>
      <path class="st21" d="M485.3,674.6v.9c-2.5,0-5,0-7.4,0-3.4.7-6.9.8-10.2,0,5.3-1.7,12-.9,17.7-.9Z"/>
      <path class="st21" d="M927.3,675.6c-3.4.9-6.8.6-10.2,0-2.5,0-5,0-7.4,0v-.9c5.6,0,12.4-.8,17.7.9Z"/>
      <path class="st21" d="M465.8,675.6c.8.3.8.6,0,.9-1.9,0-3.7,0-5.6,0-3.1.6-6.2.9-9.3,0,4.2-1.7,10.2-.9,14.9-.9Z"/>
      <path class="st15" d="M960.8,677.4c1.6,0,3.1,0,4.7,0,.8.3.8.6,0,.9-.3,0-.6,0-.9,0-3.7,0-7.5.2-11.2,0s-2.3.3-2.8-.9c3.4-.8,6.8-.7,10.2,0Z"/>
      <path class="st21" d="M979.5,678.4c-3.3,1-6.9.6-10.2,0-1.2,0-2.5,0-3.7,0v-.9c4.4,0,10.1-.8,14,.9Z"/>
      <path class="st15" d="M433.2,677.4c3.4-.7,6.9-.9,10.2,0-3.8,1.7-9.5.9-14,.9-.8-.3-.8-.6,0-.9,1.2,0,2.5,0,3.7,0Z"/>
      <path class="st21" d="M429.5,677.4v.9c-.9,0-1.9,0-2.8,0-3.7.7-7.5.8-11.2,0,3.8-1.7,9.5-.9,14-.9Z"/>
      <path class="st13" d="M944.1,676.5c1.6,0,3.1,0,4.7,0,.8.3.8.6,0,.9-4.4,0-10.1.8-14-.9,3.1-.9,6.2-.6,9.3,0Z"/>
      <path class="st15" d="M450.9,676.5c3.1,0,6.2,0,9.3,0-3.8,1.7-9.5.9-14,.9-.8-.3-.8-.6,0-.9,1.6,0,3.1,0,4.7,0Z"/>
      <path class="st21" d="M944.1,676.5c-3.1,0-6.2,0-9.3,0-1.6,0-3.1,0-4.7,0-.8-.3-.8-.6,0-.9,4.4,0,10.1-.8,14,.9Z"/>
      <path class="st15" d="M415.6,678.4c3.7,0,7.5,0,11.2,0-3.5,1.7-8.9.9-13,.9-.8-.3-.8-.6,0-.9.6,0,1.2,0,1.9,0Z"/>
      <path class="st21" d="M446.3,676.5v.9c-.9,0-1.9,0-2.8,0-3.4,0-6.8,0-10.2,0,3.5-1.7,8.9-.9,13-.9Z"/>
      <path class="st13" d="M927.3,675.6c.9,0,1.9,0,2.8,0v.9c-4.1,0-9.5.8-13-.9,3.4,0,6.8,0,10.2,0Z"/>
      <path class="st13" d="M467.7,675.6c3.4,0,6.8,0,10.2,0-3.1,1.7-8.3.9-12.1.9v-.9c.6,0,1.2,0,1.9,0Z"/>
      <path class="st15" d="M1011.1,681.2c-4.7-.1-7.6-.3-12.1-.9,3.8.5,8.9-1.1,12.1.9Z"/>
      <path class="st21" d="M960.8,677.4c-3.4,0-6.8,0-10.2,0s-1.2,0-1.9,0v-.9c3.8,0,9-.8,12.1.9Z"/>
      <path class="st21" d="M993.4,679.3c-4,0-8.1,0-12.1,0-.8-.3-.8-.6,0-.9,4.7.2,7.5.2,12.1.9Z"/>
      <path class="st15" d="M979.5,678.4c.6,0,1.2,0,1.9,0v.9c-3.8,0-9,.8-12.1-.9,3.4,0,6.8,0,10.2,0Z"/>
      <path class="st15" d="M1024.1,682.1c-3.5,0-8.4.8-11.2-.9,3.5,0,8.4-.8,11.2.9Z"/>
      <path class="st15" d="M1037.2,683c-2.1,0-4.4.2-6.5,0s-1.6,0-1.9-.9c2.6,0,6.5-.8,8.4.9Z"/>
      <path class="st15" d="M396,680.2c-3.1,1.7-8.3.9-12.1.9,3.1-1.7,8.3-.9,12.1-.9Z"/>
      <path class="st15" d="M382.1,681.2c-2.8,1.7-7.6.9-11.2.9-.8-.3-.8-.6,0-.9,3.7,0,7.5,0,11.2,0Z"/>
      <path class="st21" d="M413.7,678.4v.9c-1.6,0-3.1,0-4.7,0-2.2.5-4.5,1-6.5,0,.1-.4.5-.9.9-.9,2.9-.4,7.1,0,10.2,0Z"/>
      <path class="st21" d="M370.9,681.2v.9c-1.2,0-2.5,0-3.7,0-2.2.6-4.4.8-6.5,0,2.5-1.7,7-.9,10.2-.9Z"/>
      <path class="st21" d="M345.8,683c.8.3.8.6,0,.9-.6,0-1.2,0-1.9,0-2.8.7-5.6.8-8.4,0,2.5-1.7,7-.9,10.2-.9Z"/>
      <path class="st15" d="M335.5,683.9c2.8,0,5.6,0,8.4,0-2.5,1.7-7,.9-10.2.9-.8-.3-.8-.6,0-.9.6,0,1.2,0,1.9,0Z"/>
      <path class="st15" d="M402.5,679.3c2.2,0,4.3,0,6.5,0-2.5,1.7-7,.9-10.2.9.6-1.4,2.5-.9,3.7-.9Z"/>
      <path class="st15" d="M303,686.7c2.2-.7,4.4-.8,6.5,0-2.1,1.7-6.4.9-9.3.9-.8-.3-.8-.6,0-.9.9,0,1.9,0,2.8,0Z"/>
      <path class="st21" d="M300.2,686.7v.9c-.6,0-1.2,0-1.9,0-2.5.7-5,.8-7.4,0,2.1-1.7,6.4-.9,9.3-.9Z"/>
      <path class="st21" d="M333.7,683.9v.9c-1.2,0-2.5,0-3.7,0-1.9.6-3.8.8-5.6,0,2.1-1.7,6.4-.9,9.3-.9Z"/>
      <path class="st15" d="M360.6,682.1c2.2,0,4.3,0,6.5,0-2.1,1.7-6.4.9-9.3.9-.8-.3-.8-.6,0-.9.9,0,1.9,0,2.8,0Z"/>
      <path class="st15" d="M349.5,683c1.9-.6,3.8-.8,5.6,0-2.1,1.7-6.4.9-9.3.9v-.9c1.2,0,2.5,0,3.7,0Z"/>
      <path class="st21" d="M357.9,682.1v.9c-.9,0-1.9,0-2.8,0-1.9,0-3.7,0-5.6,0,1.8-1.7,5.8-.9,8.4-.9Z"/>
      <path class="st21" d="M322.5,684.9c.8.3.8.6,0,.9-.9,0-1.9,0-2.8,0-1.9.6-3.8.8-5.6,0,1.8-1.7,5.8-.9,8.4-.9Z"/>
      <path class="st21" d="M311.3,685.8c.8.3.8.6,0,.9-.6,0-1.2,0-1.9,0-2.2,0-4.3,0-6.5,0,1.8-1.7,5.8-.9,8.4-.9Z"/>
      <path class="st15" d="M314.1,685.8c1.9,0,3.7,0,5.6,0-1.8,1.7-5.7.9-8.4.9v-.9c.9,0,1.9,0,2.8,0Z"/>
      <path class="st15" d="M282.5,688.6c1.5-.6,3.2-.9,4.7,0v.9c-2.7,0-5.7-.3-8.4,0,.6-1.4,2.5-.9,3.7-.9Z"/>
      <path class="st15" d="M298.3,687.7c-1.8,1.7-5.8.9-8.4.9-.8-.3-.8-.6,0-.9.3,0,.6,0,.9,0,2.5,0,5,0,7.4,0Z"/>
      <path class="st21" d="M289.9,687.7v.9c-.9,0-1.9,0-2.8,0-1.5,0-3.1,0-4.7,0,1.5-1.7,5.1-.9,7.4-.9Z"/>
      <path class="st15" d="M324.4,684.9c1.9,0,3.7,0,5.6,0-1.5,1.7-5.1.9-7.4.9v-.9c.6,0,1.2,0,1.9,0Z"/>
      <path class="st15" d="M1157.2,278.3c-8,0-16.2-.2-24.2,0,5.7-1.6,13-1,19.1-.9,1.6,0,4.1-.6,5.1.9Z"/>
      <path class="st15" d="M1131.1,278.3c-3.3,0-8,.8-12.1.9-.8-.3-.8-.6,0-.9,4,0,8.1,0,12.1,0Z"/>
      <path class="st21" d="M1119,278.3v.9c-1.2,0-2.5,0-3.7,0-1.3.6-2.5.8-3.7,0,1.5-1.7,5.1-.9,7.4-.9Z"/>
      <path class="st21" d="M1109.7,279.2c.8.3.8.6,0,.9-1.9,0-3.7,0-5.6,0,1-1.6,3.8-.9,5.6-.9Z"/>
      <path class="st15" d="M1111.6,279.2c1.2,0,2.5,0,3.7,0-1,1.6-3.8.9-5.6.9v-.9c.6,0,1.2,0,1.9,0Z"/>
      <path class="st21" d="M1101.4,280.1c-1,1.6-3.8.9-5.6.9,1-1.6,3.8-.9,5.6-.9Z"/>
      <path class="st21" d="M1094.8,281.1c-.8,1.5-3.2.9-4.7.9,1.9-.5,2.3-.7,4.7-.9Z"/>
      <rect class="st36" x="684.5" y="896.1" width=".9" height="46.5"/>
      <path class="st24" d="M726.4,670.9h-57.7c19.2-.1,38.5,0,57.7,0Z"/>
      <path class="st27" d="M362.5,461.6c-.7-.5-.4-1.2,0-1.9,0-.3,0-.6,0-.9l-.9-6.5c-.3-24.1,9.7-39.2,34.1-43.6,40.3-7.3,83.9-8.2,124.1-15.9,16.2-2,33.3,5.2,40.8,20.2,4.6,9.1,7,36.2,7.6,47.3,1.5,29.4-12.2,42.9-40.5,46-40.8,4.5-82.1,5.2-122.8,10.2-18.9.6-35.4-12-39.3-30.5-1.7-7.9-.6-16.6-3-24.4Z"/>
      <path class="st18" d="M360.6,451.3c-1.6.2-.9-2.1-.9-3.2,0-2.3,0-4.7,0-7,1.6-.2.9,2.1.9,3.2,0,2.3,0,4.7,0,7Z"/>
      <path class="st34" d="M362.5,461.6c0,2.2,0,4.3,0,6.5-1.6.2-.9-2.1-.9-3.3s-.5-4.2.9-5.1c0,.6,0,1.2,0,1.9Z"/>
      <path class="st17" d="M362.5,458.8c-1.6-1.3-.9-4.5-.9-6.5,1.6,1.3.9,4.5.9,6.5Z"/>
      <path class="st32" d="M519.8,392.7h-5.6s0-.9,0-.9c1.8.3,5.1-.8,5.6.9Z"/>
      <path class="st27" d="M1005.5,514.6c-1.9,1.7-6.5,2.1-9.3,1.9-2.6.7-5.1.7-7.4,0-.2.8-.5.8-.9,0l-9.3-.9c-.5,1.4-1.3,1.4-1.9,0l-7.4-.9c-1.2,1.5-2.5,1.4-3.7,0l-9.3-.9c-.5,1.1-1.3,1.1-1.9,0l-9.3-.9c-.6.9-1.2.9-1.9,0l-8.4-.9c-.9,1-1.9,1-2.8,0l-9.3-.9c-.6,1.2-1.3,1.2-1.9,0l-9.3-.9c-.5,1.5-1.3,1.5-1.9,0l-8.4-.9c-.8,1.7-1.9,1.7-2.8,0l-7.4-.9c-.6,1.9-3,1.8-3.7,0-3-.7-6.1-1-9.3-.9-.3.6-.7,1.1-1,1.1-7.4-.1-27.8-2.8-33.2-7.4-.2-.2-.3-.7-.3-1.2-8-5.8-15.5-15.7-16.6-25.7-1.3-11.4,2.8-51.8,7.9-61.7,7.1-13.7,22.8-21.3,38-19.6,41.5,7.5,86.1,8.4,127.2,16.1,17.1,3.2,31.2,14.8,33.2,32.9,1.1,9.6-3,45.6-7.2,54-3.5,7.1-13.1,16.3-20.6,18.9Z"/>
      <path class="st22" d="M843.6,499.7c8.9,6.5,23.5,6.4,34.4,7.4,3.2,0,6.3.3,9.3.9,1.2,0,2.5,0,3.7,0l7.4.9c.9,0,1.9,0,2.8,0l8.4.9c.6,0,1.2,0,1.9,0l9.3.9c.6,0,1.2,0,1.9,0l9.3.9c.9,0,1.9,0,2.8,0l8.4.9c.6,0,1.2,0,1.9,0l9.3.9c.6,0,1.2,0,1.9,0l9.3.9c1.2,0,2.5,0,3.7,0l7.4.9c.6,0,1.2,0,1.9,0l9.3.9c.3,0,.6,0,.9,0,2.4.7,4.8.7,7.4,0,2.7-.5,7.1-1.1,9.3-1.9l.7,1.2c-20.7,4.9-44.2-.4-65.4-2.1-22.1-1.8-78-2.5-95.3-10.8s-6.4-3.4-2-3.1Z"/>
      <path class="st21" d="M965.5,514.6c-2.9,0-7.2.8-9.3-.9,2.9,0,7.2-.8,9.3.9Z"/>
      <path class="st21" d="M887.3,508.1c-3.3-.2-6.4-.7-9.3-.9,2.9.4,7.1-1.1,9.3.9Z"/>
      <path class="st21" d="M987.8,516.5c-2.9,0-7.2.8-9.3-.9,2.9,0,7.2-.8,9.3.9Z"/>
      <path class="st21" d="M954.3,513.7c-2.9,0-7.2.8-9.3-.9,2.9,0,7.2-.8,9.3.9Z"/>
      <path class="st21" d="M920.8,510.9c-2.9,0-7.2.8-9.3-.9,2.9,0,7.2-.8,9.3.9Z"/>
      <path class="st21" d="M932,511.8c-2.9,0-7.2.8-9.3-.9,2.9,0,7.2-.8,9.3.9Z"/>
      <path class="st21" d="M943.2,512.7c-2.6,0-6.5.8-8.4-.9,2.6,0,6.5-.8,8.4.9Z"/>
      <path class="st21" d="M909.7,510c-2.6,0-6.5.8-8.4-.9,2.6,0,6.5-.8,8.4.9Z"/>
      <path class="st21" d="M898.5,509c-2.3,0-5.9.7-7.4-.9,2.3,0,5.9-.7,7.4.9Z"/>
      <path class="st21" d="M996.2,516.5c-1.9.4-5.3,2.5-7.4,0,2.5,0,5,0,7.4,0Z"/>
      <path class="st21" d="M976.7,515.5c-2.3,0-5.9.7-7.4-.9,2.3,0,5.9-.7,7.4.9Z"/>
    </g>
  </g>
  <path class="st1" d="M3269.8,328.4c40.2-31.2,98.1-23.9,129.4,16.3l185.9,261.1,185.9-261.1c31.2-40.2,89.2-47.5,129.4-16.3,23.6,18.3,35.8,45.8,35.6,73.5.2,2.7.4,5.4.4,8.2v576.3c0,50.9-41.3,92.2-92.2,92.2s-92.2-41.3-92.2-92.2v-316.6l-92.9,141.4c-18.4,23.7-46.1,36-73.9,35.7-27.9.3-55.5-12-73.9-35.7l-95.2-144.3v319.5c0,50.9-41.3,92.2-92.2,92.2s-92.2-41.3-92.2-92.2V410.2c0-10.7,1.8-21,5.2-30.5,4.7-19.6,15.9-37.9,33.1-51.2h-.2ZM1963.7,502.4v484.1c0,50.9-41.3,92.2-92.2,92.2s-92.2-41.3-92.2-92.2v-484.1h-115.2c-50.9,0-92.2-41.3-92.2-92.2s41.3-92.2,92.2-92.2h891.4c50.9,0,92.2,41.3,92.2,92.2s-41.3,92.2-92.2,92.2h-192.2v99.9h192.1c50.9,0,92.2,41.3,92.2,92.2s-41.3,92.2-92.2,92.2h-192.1v107.6h192.1c50.9,0,92.2,41.3,92.2,92.2s-41.3,92.2-92.2,92.2h-284.3c-50.9,0-92.2-41.3-92.2-92.2v-484.1h-215.2ZM2904.4,318h-103.9c-50.9,0-92.2,41.3-92.2,92.2v576.3c0,50.9,41.3,92.2,92.2,92.2h284.5c50.9,0,92.2-41.3,92.2-92.2s-41.3-92.2-92.2-92.2h-192.3v-107.6h192.3c50.9,0,92.2-41.3,92.2-92.2s-41.3-92.2-92.2-92.2h-192.3v-100.6c3.8.5,7.7.7,11.7.7h180.6c50.9,0,92.2-41.3,92.2-92.2s-41.3-92.2-92.2-92.2h-180.6Z"/>
  <path class="st1" d="M4308.5,318c187,0,338.5,167.7,338.5,374.6s-151.5,374.6-338.5,374.6-338.5-167.7-338.5-374.6,151.5-374.6,338.5-374.6h0ZM4308.5,502.4c-76.9,0-154.1,75.9-154.1,190.2s77.1,190.2,154.1,190.2,154.1-75.9,154.1-190.2-77.1-190.2-154.1-190.2h0Z"/>
  <path class="st6" d="M4875.2,318v668.5c0,50.9-41.3,92.2-92.2,92.2s-92.2-41.3-92.2-92.2V410.2c0-50.9,41.3-92.2,92.2-92.2h92.2Z"/>
  <path class="st6" d="M5946.5,629.2c50.9,0,92.2,41.3,92.2,92.2v265.1c0,50.9-41.3,92.2-92.2,92.2s-92.2-41.3-92.2-92.2v-265.1c0-50.9,41.3-92.2,92.2-92.2h0Z"/>
  <path class="st6" d="M5757.4,318c32,0,61.8,16.6,78.5,43.9l163.1,265.1c37.8,61.4-6.4,140.5-78.5,140.5h-57.8l-204.6-332.4c-31.5-51.2,5.3-117.1,65.4-117.1h33.9Z"/>
  <path class="st6" d="M6135.6,318c-32,0-61.8,16.6-78.5,43.9l-163.1,265.1c-37.8,61.4,6.4,140.5,78.5,140.5h57.8l204.6-332.4c31.5-51.2-5.3-117.1-65.4-117.1h-33.9Z"/>
  <path class="st6" d="M5431.6,318c60.3,0,102,60.2,80.9,116.6l-219.8,588c-12.6,33.8-44.9,56.1-80.9,56.1-60.3,0-102-60.2-80.9-116.6l219.8-588c12.6-33.8,44.9-56.1,80.9-56.1h0Z"/>
  <path class="st6" d="M5474.5,318c-60.3,0-102,60.2-80.9,116.6l219.8,588c12.6,33.8,44.9,56.1,80.9,56.1,60.3,0,102-60.2,80.9-116.6l-219.8-588c-12.6-33.8-44.9-56.1-80.9-56.1h0Z"/>
  <path class="st2" d="M4875.2,502.4v165.2h80.3c45.6,0,82.6-37,82.6-82.6s-37-82.6-82.6-82.6h-80.3ZM4783,318c-50.9,0-92.2,41.3-92.2,92.2v441.8h264.7c147.5,0,267-119.6,267-267s-119.6-267-267-267h-172.5Z"/>
  <path class="st6" d="M5277.2,752.9h342v184.4h-342v-184.4Z"/>
  <path class="st6" d="M5428.6,318h50.7v23.1h-50.7v-23.1Z"/>
</svg>