<svg width="154" height="31" viewBox="0 0 154 31" fill="none" xmlns="http://www.w3.org/2000/svg">
<g id="Group 1410135097">
<path id="Vector" d="M17.33 6.93143C17.3115 6.93143 17.2938 6.93889 17.2807 6.95219C17.2676 6.96549 17.2603 6.98352 17.2603 7.00232V30.6691C17.2603 30.6946 17.25 30.7191 17.2317 30.7372C17.2135 30.7553 17.1887 30.7654 17.1629 30.7654H9.18128C9.15281 30.7654 9.1255 30.7541 9.10537 30.734C9.08524 30.7138 9.07393 30.6865 9.07393 30.658V7.04774C9.07393 7.01866 9.0625 6.99076 9.04216 6.97019C9.02182 6.94962 8.99424 6.93807 8.96547 6.93807H0.0818989C0.0601786 6.93807 0.039345 6.92955 0.0239864 6.91439C0.0086278 6.89922 0 6.87865 0 6.8572V0.0576143C1.1394e-06 0.0499552 0.00150093 0.0423742 0.00440753 0.0353119C0.00731412 0.0282496 0.0115689 0.0218487 0.0169276 0.0164848C0.0222863 0.0111209 0.02864 0.00690305 0.0356148 0.00407428C0.0425897 0.0012455 0.0500481 -0.000136886 0.0575512 1.06848e-05C7.7942 0.0206893 15.2213 0.0638945 22.339 0.129623C23.4936 0.139962 24.7096 0.160641 25.9867 0.191659C26.0181 0.192525 26.0479 0.205625 26.0699 0.228177C26.0918 0.250729 26.104 0.28095 26.104 0.312407V6.89487C26.104 6.90456 26.1 6.91386 26.093 6.92072C26.0859 6.92757 26.0764 6.93143 26.0664 6.93143H17.33Z" fill="white"/>
<path id="Vector_2" d="M29.1847 20.0428C29.162 20.0425 29.1394 20.0467 29.1184 20.0552C29.0973 20.0637 29.0782 20.0762 29.062 20.0922C29.0459 20.1081 29.033 20.1271 29.0243 20.148C29.0155 20.1689 29.011 20.1914 29.011 20.2141V30.6414C29.011 30.6585 29.0043 30.675 28.9923 30.6871C28.9803 30.6993 28.964 30.7063 28.9469 30.7066C27.967 30.7265 25.5146 30.746 21.5898 30.7652C21.3546 30.7659 20.9818 30.7523 20.4716 30.7243C20.4402 30.7226 20.4107 30.7089 20.389 30.6861C20.3674 30.6633 20.3554 30.6331 20.3555 30.6017V10.8828C20.3554 10.8512 20.3676 10.8208 20.3895 10.7979C20.4113 10.7751 20.4411 10.7616 20.4727 10.7601C20.9306 10.7402 21.2941 10.7343 21.5632 10.7425C24.4315 10.8323 26.8993 10.8629 28.9668 10.8342C29.835 10.822 30.8238 10.8684 31.7628 10.8463C32.1904 10.836 32.4802 10.7682 32.6321 10.643C32.8739 10.4441 32.9665 10.1638 32.9097 9.80214C32.8555 9.45519 32.423 9.3248 32.12 9.23309C31.9851 9.19184 31.7838 9.17968 31.5161 9.19663C31.1017 9.22315 30.3895 9.22462 29.3793 9.20105C28.8684 9.19 28.9458 8.84194 28.9491 8.40659C28.972 5.90867 28.9745 4.45088 28.9568 4.03321C28.9082 2.86344 28.9067 1.65463 28.9524 0.406776C28.953 0.393572 28.9561 0.380608 28.9617 0.368628C28.9672 0.356648 28.975 0.345887 28.9847 0.336958C28.9943 0.32803 29.0056 0.321109 29.018 0.316594C29.0303 0.31208 29.0433 0.310059 29.0564 0.310646C29.6455 0.334218 30.4839 0.359998 31.5714 0.38799C32.0042 0.399777 32.3312 0.419297 32.5524 0.446553C33.0192 0.505115 33.3974 0.49296 33.8564 0.581356C34.7589 0.754465 35.4963 0.933098 36.0684 1.11726C38.0659 1.75923 39.8642 2.93268 41.1195 4.63209C42.0515 5.8932 42.6204 7.29722 42.8261 8.84415C42.9024 9.41541 42.8858 10.148 42.8803 10.7248C42.8615 12.7258 41.8937 15.0993 40.5068 16.5213C39.1608 17.9014 37.5095 18.8616 35.7245 19.4185C35.2017 19.5813 34.5318 19.7408 33.7149 19.8969C33.1537 20.0037 32.4765 20.056 31.6831 20.0538C30.2291 20.0494 29.3963 20.0457 29.1847 20.0428Z" fill="#2452D8"/>
<path id="Vector_3" d="M133.007 27.9683H128.532V23.3519H119.457V27.9683H114.982V13.1819C114.982 9.62147 118.969 6.03232 122.286 5.41497C127.154 4.50894 133.005 8.37051 133.005 13.5555V27.9683H133.007ZM128.532 18.9842V13.6805C128.532 12.9132 127.62 11.4535 127.042 10.9337C125.024 9.12034 121.881 9.45026 120.275 11.6297C120.093 11.8759 119.459 13.0806 119.459 13.3056V18.983H128.533L128.532 18.9842Z" fill="#2452D8"/>
<path id="Vector_4" d="M98.9659 23.3568V27.9683H94.4727V5.28271H104.145C110.402 5.28271 114.376 12.9678 111.594 18.4569C110.512 20.5904 107.25 23.3581 104.769 23.3581H98.9659V23.3568ZM98.9659 18.995H103.646C106.221 18.995 108.343 16.3184 108.063 13.8354C107.867 12.0939 105.995 9.77065 104.146 9.77065H98.9659V18.995Z" fill="#2452D8"/>
<path id="Vector_5" d="M140.122 5.28271V12.9486C140.122 13.2807 140.624 14.2831 140.84 14.5976C142.691 17.284 146.565 17.4001 148.431 14.6738C148.592 14.4391 149.197 13.1633 149.197 12.9499V5.28396H153.673V12.9499C153.673 14.9135 152.033 17.6785 150.567 18.9343C149.455 19.8867 148.2 20.4348 146.837 20.9266V27.9683H142.486V20.9266C141.171 20.436 139.969 19.9691 138.879 19.0579C137.468 17.8795 135.648 15.0782 135.648 13.1983V5.28396H140.124L140.122 5.28271Z" fill="#2452D8"/>
<path id="Vector_6" d="M91.9851 5.28271V9.7704H85.2722V27.9683H80.6726V9.7704H73.9609V5.28271H91.9851Z" fill="white"/>
<path id="Vector_7" d="M73.3397 5.28271V9.7704H66.6781L66.4912 9.95765V27.9683H62.0086V9.7704H55.1602V5.28271H73.3397Z" fill="white"/>
</g>
</svg>
