<?xml version="1.0" encoding="UTF-8"?>
<svg width="1564px" height="300px" viewBox="0 0 1564 300" version="1.1" xmlns="http://www.w3.org/2000/svg" xmlns:xlink="http://www.w3.org/1999/xlink">
    <title>logo11</title>
    <defs>
        <rect id="path-1" x="0" y="0" width="1564" height="300"></rect>
        <path d="M-7.10542736e-15,20 C-7.10542736e-15,30.363 39.591,39.252 96,43.043 C105.42,43.676 115.308,39.878 125.56,35.941 C135.718,32.039 146.232,28 157,28 C167.768,28 178.282,32.039 188.44,35.941 C198.692,39.878 208.58,43.676 218,43.043 C274.409,39.252 314,30.363 314,20 L245.5,8 L157,0 L68.5,8 L-7.10542736e-15,20 Z" id="path-3"></path>
        <path d="M39.8199,36.356 L159.508,0 L310.256,34.226 C320.643,56.651 334.749,73.973 351.019,83.579 C315.106,133.092 249.934,166.186 175.496,166.186 C101.076,166.186 35.9181,133.108 0,83.616 C15.7768,74.323 29.5228,57.776 39.8199,36.356 Z" id="path-5"></path>
        <path d="M139.5,11.8137973 C128.743,19.4972973 122.879,32.5104973 119.964,43.7656973 C71.3826,57.0591973 33.3427,95.8657973 21.1412,144.887997 L20.4307,145.494997 C10.9893,153.554997 3.9255,164.036997 0,175.813997 C0,175.813997 60.9609,165.813997 157,165.813997 C253.039,165.813997 314,175.813997 314,175.813997 C310.074,164.036997 303.011,153.554997 293.569,145.494997 L292.865,144.893997 C279.719,92.0648973 236.566,51.0988973 182.55,41.1392973 C192.263,26.7959973 191.219,12.1013973 188.157,3.23138728 C187.324,0.817827279 184.794,-0.481062721 182.324,0.164957279 C172.63,2.70001728 163.647,8.75059728 160,11.8137973 C159.662,9.27799728 158.657,6.95051728 157.446,4.98244728 C155.42,1.69170728 150.607,2.52483728 147.81,5.19058728 C144.934,7.93079728 141.539,10.4546973 139.5,11.8137973 Z M297,179.714997 C297.002,179.414997 297.003,179.113997 297.003,178.813997 C297.003,178.512997 297.002,178.212997 297,177.912997 L297,179.714997 Z" id="path-7"></path>
        <rect id="path-9" x="0" y="0" width="1225.59" height="234.361"></rect>
    </defs>
    <g id="页面-1" stroke="none" stroke-width="1" fill="none" fill-rule="evenodd">
        <g id="logo11">
            <mask id="mask-2" fill="white">
                <use xlink:href="#path-1"></use>
            </mask>
            <g id="矩形"></g>
            <g id="编组" mask="url(#mask-2)">
                <g transform="translate(0.000000, 2.000003)">
                    <path d="M18.543,175.812997 C18.543,186.175997 58.134,195.064997 114.543,198.855997 C123.963,199.488997 133.851,195.690997 144.103,191.753997 C154.261,187.851997 164.775,183.812997 175.543,183.812997 C186.311,183.812997 196.825,187.851997 206.983,191.753997 C217.235,195.690997 227.123,199.488997 236.543,198.855997 C292.952,195.064997 332.543,186.175997 332.543,175.812997 L264.043,163.812997 L175.543,155.812997 L87.043,163.812997 L18.543,175.812997 Z" id="路径" stroke="none" fill="#0A4A23" fill-rule="evenodd"></path>
                    <g id="Clipped" stroke="none" stroke-width="1" fill="none" fill-rule="evenodd" transform="translate(18.543000, 155.812997)">
                        <mask id="mask-4" fill="white">
                            <use xlink:href="#path-3"></use>
                        </mask>
                        <g id="路径"></g>
                        <path d="M96,43.043 L96.671,33.066 L96.671,33.066 L96,43.043 Z M-1.0658141e-14,20 L-1.7256,10.15 L-10.00003,11.6 L-10.00003,20 L-1.0658141e-14,20 Z M125.56,35.941 L129.146,45.276 L129.146,45.276 L125.56,35.941 Z M188.44,35.941 L184.854,45.276 L184.854,45.276 L188.44,35.941 Z M218,43.043 L217.329,33.066 L217.329,33.066 L218,43.043 Z M314,20 L324,20 L324,11.6 L315.726,10.15 L314,20 Z M245.5,8 L247.226,-1.85 L246.815,-1.921 L246.4,-1.959 L245.5,8 Z M157,-2.84217094e-14 L157.9,-9.959 L157,-10.04 L156.1,-9.959 L157,-2.84217094e-14 Z M68.5,8 L67.5997,-1.959 L67.1848,-1.921 L66.7744,-1.85 L68.5,8 Z M96.671,33.066 C68.7347,31.188 45.3392,28.068 29.139,24.252 C20.957,22.325 15.1552,20.344 11.622,18.537 C9.8394,17.625 9.148,17.013 9.0245,16.884 C8.9388,16.795 10,17.874 10,20 L-10.00003,20 C-10.00003,24.717 -7.7016,28.341 -5.4018,30.736 C-3.1398,33.092 -0.2975,34.904 2.5129,36.342 C8.1658,39.234 15.7873,41.655 24.5542,43.72 C42.2518,47.888 66.8563,51.107 95.329,53.021 L96.671,33.066 Z M121.974,26.606 C111.14,30.767 103.457,33.522 96.671,33.066 L95.329,53.021 C107.383,53.831 119.476,48.99 129.146,45.276 L121.974,26.606 Z M157,18 C144.052,18 131.773,22.842 121.974,26.606 L129.146,45.276 C139.663,41.236 148.413,38 157,38 L157,18 Z M192.025,26.606 C182.227,22.842 169.948,18 157,18 L157,38 C165.587,38 174.337,41.236 184.854,45.276 L192.025,26.606 Z M217.329,33.066 C210.543,33.522 202.86,30.767 192.025,26.606 L184.854,45.276 C194.524,48.99 206.617,53.831 218.67,53.021 L217.329,33.066 Z M304,20 C304,17.874 305.061,16.795 304.975,16.884 C304.852,17.013 304.161,17.625 302.378,18.537 C298.845,20.344 293.043,22.325 284.861,24.252 C268.661,28.068 245.265,31.188 217.329,33.066 L218.67,53.021 C247.144,51.107 271.748,47.888 289.446,43.72 C298.213,41.655 305.834,39.234 311.487,36.342 C314.297,34.904 317.14,33.092 319.402,30.736 C321.702,28.341 324,24.717 324,20 L304,20 Z M315.726,10.15 L247.226,-1.85 L243.774,17.85 L312.274,29.85 L315.726,10.15 Z M246.4,-1.959 L157.9,-9.959 L156.1,9.96 L244.6,17.96 L246.4,-1.959 Z M156.1,-9.959 L67.5997,-1.959 L69.4003,17.96 L157.9,9.96 L156.1,-9.959 Z M66.7744,-1.85 L-1.7256,10.15 L1.7255,29.85 L70.2255,17.85 L66.7744,-1.85 Z" id="形状" fill="#0E1B20" fill-rule="nonzero" mask="url(#mask-4)"></path>
                    </g>
                    <path d="M39.8199,166.168997 L159.508,129.812997 L310.256,164.038997 C320.643,186.463997 334.749,203.785997 351.019,213.391997 C315.106,262.904997 249.934,295.998997 175.496,295.998997 C101.076,295.998997 35.9181,262.920997 0,213.428997 C15.7768,204.135997 29.5228,187.588997 39.8199,166.168997 Z" id="路径" stroke="none" fill="#FFFFFF" fill-rule="evenodd"></path>
                    <g id="Clipped" stroke="none" stroke-width="1" fill="none" fill-rule="evenodd" transform="translate(0.000000, 129.812997)">
                        <mask id="mask-6" fill="white">
                            <use xlink:href="#path-5"></use>
                        </mask>
                        <g id="路径"></g>
                        <path d="M159.508,1.42108547e-14 L161.722,-9.751 L159.138,-10.338 L156.602,-9.568 L159.508,1.42108547e-14 Z M39.8199,36.356 L36.9135,26.788 L32.7104,28.065 L30.8072,32.024 L39.8199,36.356 Z M310.256,34.226 L319.33,30.024 L317.264,25.563 L312.47,24.475 L310.256,34.226 Z M351.019,83.579 L359.114,89.451 L365.566,80.555 L356.103,74.968 L351.019,83.579 Z M7.10542736e-15,83.616 L-5.07523,75 L-14.5563,80.584 L-8.09328,89.49 L7.10542736e-15,83.616 Z M156.602,-9.568 L36.9135,26.788 L42.7263,45.925 L162.414,9.569 L156.602,-9.568 Z M312.47,24.475 L161.722,-9.751 L157.294,9.752 L308.042,43.978 L312.47,24.475 Z M356.103,74.968 C342.102,66.702 329.161,51.249 319.33,30.024 L301.182,38.429 C312.124,62.053 327.396,81.245 345.934,92.19 L356.103,74.968 Z M175.496,176.186 C252.778,176.186 321.118,141.835 359.114,89.451 L342.924,77.708 C309.095,124.348 247.091,156.186 175.496,156.186 L175.496,176.186 Z M-8.09328,89.49 C29.9081,141.852 98.2334,176.186 175.496,176.186 L175.496,156.186 C103.919,156.186 41.9281,124.364 8.09328,77.743 L-8.09328,89.49 Z M30.8072,32.024 C21.0777,52.263 8.49401,67.007 -5.07523,75 L5.07523,92.232 C23.0597,81.639 37.9678,63.289 48.8325,40.689 L30.8072,32.024 Z" id="形状" fill="#0E1B20" fill-rule="nonzero" mask="url(#mask-6)"></path>
                    </g>
                    <path d="M255.283,161.812997 L303.333,172.722997 C306.959,179.990997 311.013,186.801997 315.461,193.028997 C299.291,204.535997 272.021,218.812997 243.268,218.812997 C234.238,218.644997 216.154,214.812997 203.636,205.697997 C198.786,202.166997 186.378,195.105997 175.542,195.105997 C164.706,195.105997 152.298,202.166997 147.448,205.697997 C134.93,214.812997 116.846,218.644997 107.816,218.812997 C79.0594,218.812997 51.7863,204.531997 35.6172,193.024997 C39.7045,187.302997 43.4577,181.089997 46.8506,174.483997 L88.5633,161.812997 L175.542,161.812997 L255.283,161.812997 Z" id="路径" stroke="none" fill="#B2B8C7" fill-rule="evenodd"></path>
                    <path d="M84.1883,195.595997 C89.9885,180.350997 105.06,177.415997 111.871,177.853997 C134.541,178.904997 144.17,193.624997 143.511,200.196997 C142.984,205.453997 138.678,203.919997 136.92,202.167997 C134.811,200.064997 130.329,196.910997 128.352,195.595997 C110.952,185.081997 97.8133,193.843997 93.4193,199.539997 C91.8374,201.641997 90.1214,202.605997 89.4612,202.824997 C82.6065,204.927997 83.0898,198.881997 84.1883,195.595997 Z" id="路径" stroke="none" fill="#0E1B20" fill-rule="nonzero"></path>
                    <path d="M266.898,195.595997 C261.097,180.350997 246.026,177.415997 239.215,177.853997 C216.545,178.904997 206.915,193.624997 207.575,200.196997 C208.102,205.453997 212.408,203.919997 214.166,202.167997 C216.275,200.064997 220.757,196.910997 222.734,195.595997 C240.134,185.081997 253.273,193.843997 257.667,199.539997 C259.249,201.641997 260.964,202.605997 261.625,202.824997 C268.479,204.927997 267.996,198.881997 266.898,195.595997 Z" id="路径" stroke="none" fill="#0E1B20" fill-rule="nonzero"></path>
                    <path d="M49.2362,155.259997 L53.4631,160.175997 L57.1439,154.837997 L112.62,74.3898973 L115.836,69.7264973 L110.809,67.1146973 C94.7119,58.7503973 79.3173,54.4426973 67.0345,52.4581973 C60.8928,51.4658973 55.4954,51.0487973 51.1402,51.0039973 C46.8987,50.9602973 43.3314,51.2648973 40.9965,51.8904973 L40.8485,51.9301973 L40.7032,51.9787973 C35.8739,53.5955973 33.0736,58.2771973 31.5179,61.7588973 C29.8187,65.5617973 28.8191,69.7308973 28.3954,72.6248973 L28.3855,72.6921973 L28.3775,72.7596973 C23.5418,113.490997 39.9258,144.429997 49.2362,155.259997 Z" id="路径" stroke="#0E1B20" stroke-width="10" fill="#B2B8C7" fill-rule="nonzero"></path>
                    <path d="M33.7761,59.2245973 C39.9991,73.7095973 53.1945,96.8433973 72.2023,109.974997 L54.5282,142.355997 L47.9841,151.812997 C39.4711,141.944997 23.6099,112.428997 28.2697,73.3149973 C28.8363,69.4579973 30.6065,62.9324973 33.7761,59.2245973 Z" id="路径" stroke="none" fill="#0E1B20" fill-rule="evenodd"></path>
                    <path d="M72.2023,109.974997 L76.5911,112.369997 L78.7476,108.418997 L75.0443,105.860997 L72.2023,109.974997 Z M33.7761,59.2245973 L38.37,57.2508973 L35.1976,49.8665973 L29.9754,55.9757973 L33.7761,59.2245973 Z M54.5282,142.355997 L58.6398,145.200997 L58.7903,144.982997 L58.917,144.750997 L54.5282,142.355997 Z M47.9841,151.812997 L44.1982,155.078997 L48.419,159.971997 L52.0958,154.657997 L47.9841,151.812997 Z M28.2697,73.3149973 L23.3228,72.5882973 L23.3128,72.6557973 L23.3048,72.7234973 L28.2697,73.3149973 Z M75.0443,105.860997 C57.1869,93.5243973 44.4579,71.4211973 38.37,57.2508973 L29.1821,61.1982973 C35.5403,75.9978973 49.2021,100.161997 69.3604,114.088997 L75.0443,105.860997 Z M58.917,144.750997 L76.5911,112.369997 L67.8135,107.578997 L50.1394,139.959997 L58.917,144.750997 Z M52.0958,154.657997 L58.6398,145.200997 L50.4165,139.510997 L43.8725,148.967997 L52.0958,154.657997 Z M23.3048,72.7234973 C18.4608,113.383997 34.873,144.268997 44.1982,155.078997 L51.7701,148.546997 C44.0691,139.619997 28.759,111.473997 33.2346,73.9064973 L23.3048,72.7234973 Z M29.9754,55.9757973 C27.8207,58.4963973 26.3356,61.7058973 25.3319,64.5496973 C24.3067,67.4539973 23.6493,70.3655973 23.3228,72.5882973 L33.2166,74.0416973 C33.4567,72.4072973 33.9676,70.1277973 34.7617,67.8780973 C35.5771,65.5679973 36.5619,63.6606973 37.5767,62.4733973 L29.9754,55.9757973 Z" id="形状" stroke="none" fill="#0E1B20" fill-rule="nonzero"></path>
                    <path d="M301.846,155.259997 L297.619,160.175997 L293.938,154.837997 L238.462,74.3898973 L235.246,69.7264973 L240.273,67.1146973 C256.37,58.7503973 271.765,54.4426973 284.048,52.4581973 C290.189,51.4658973 295.587,51.0487973 299.942,51.0039973 C304.183,50.9602973 307.751,51.2648973 310.086,51.8904973 L310.234,51.9301973 L310.379,51.9787973 C315.208,53.5955973 318.008,58.2771973 319.564,61.7588973 C321.263,65.5617973 322.263,69.7308973 322.687,72.6248973 L322.697,72.6921973 L322.705,72.7596973 C327.54,113.490997 311.156,144.429997 301.846,155.259997 Z" id="路径" stroke="#0E1B20" stroke-width="10" fill="#B2B8C7" fill-rule="nonzero"></path>
                    <path d="M317.311,59.2265973 C311.088,73.7115973 297.892,96.8443973 278.885,109.974997 L296.566,142.367997 L303.102,151.813997 C311.615,141.944997 327.476,112.429997 322.816,73.3157973 C322.25,69.4591973 320.48,62.9346973 317.311,59.2265973 Z" id="路径" stroke="none" fill="#0E1B20" fill-rule="evenodd"></path>
                    <path d="M278.885,109.974997 L274.496,112.370997 L272.34,108.419997 L276.043,105.861997 L278.885,109.974997 Z M317.311,59.2265973 L312.717,57.2527973 L315.89,49.8675973 L321.112,55.9781973 L317.311,59.2265973 Z M296.566,142.367997 L292.454,145.212997 L292.304,144.995997 L292.177,144.763997 L296.566,142.367997 Z M303.102,151.813997 L306.888,155.079997 L302.667,159.971997 L298.99,154.658997 L303.102,151.813997 Z M322.816,73.3157973 L327.763,72.5890973 L327.773,72.6565973 L327.781,72.7242973 L322.816,73.3157973 Z M276.043,105.861997 C293.9,93.5253973 306.629,71.4231973 312.717,57.2527973 L321.905,61.2002973 C315.546,75.9999973 301.885,100.162997 281.727,114.088997 L276.043,105.861997 Z M292.177,144.763997 L274.496,112.370997 L283.274,107.579997 L300.955,139.972997 L292.177,144.763997 Z M298.99,154.658997 L292.454,145.212997 L300.677,139.522997 L307.213,148.968997 L298.99,154.658997 Z M327.781,72.7242973 C332.625,113.384997 316.213,144.269997 306.888,155.079997 L299.316,148.547997 C307.017,139.620997 322.327,111.474997 317.851,73.9072973 L327.781,72.7242973 Z M321.112,55.9781973 C323.266,58.4987973 324.751,61.7077973 325.754,64.5513973 C326.779,67.4553973 327.437,70.3666973 327.763,72.5890973 L317.869,74.0424973 C317.629,72.4082973 317.118,70.1289973 316.324,67.8795973 C315.509,65.5696973 314.525,63.6623973 313.51,62.4748973 L321.112,55.9781973 Z" id="形状" stroke="none" fill="#0E1B20" fill-rule="nonzero"></path>
                    <path d="M158.043,11.8137973 C147.286,19.4972973 141.422,32.5104973 138.507,43.7656973 C89.9256,57.0591973 51.8857,95.8657973 39.6842,144.887997 L38.9737,145.494997 C29.5323,153.554997 22.4685,164.036997 18.543,175.813997 C18.543,175.813997 79.5039,165.813997 175.543,165.813997 C271.582,165.813997 332.543,175.813997 332.543,175.813997 C328.617,164.036997 321.554,153.554997 312.112,145.494997 L311.408,144.893997 C298.262,92.0648973 255.109,51.0988973 201.093,41.1392973 C210.806,26.7959973 209.762,12.1013973 206.7,3.23138728 C205.867,0.817827279 203.337,-0.481062721 200.867,0.164957279 C191.173,2.70001728 182.19,8.75059728 178.543,11.8137973 C178.205,9.27799728 177.2,6.95051728 175.989,4.98244728 C173.963,1.69170728 169.15,2.52483728 166.353,5.19058728 C163.477,7.93079728 160.082,10.4546973 158.043,11.8137973 Z M315.543,179.714997 C315.545,179.414997 315.546,179.113997 315.546,178.813997 C315.546,178.512997 315.545,178.212997 315.543,177.912997 L315.543,179.714997 Z" id="形状" stroke="none" fill="#009853" fill-rule="evenodd"></path>
                    <g id="Clipped" stroke="none" stroke-width="1" fill="none" fill-rule="evenodd" transform="translate(18.543000, 0.000000)">
                        <mask id="mask-8" fill="white">
                            <use xlink:href="#path-7"></use>
                        </mask>
                        <g id="形状"></g>
                        <path d="M119.964,43.7656973 L122.603,53.4111973 L128.192,51.8818973 L129.644,46.2726973 L119.964,43.7656973 Z M139.5,11.8137973 L133.953,3.49333728 L133.819,3.58277728 L133.688,3.67650728 L139.5,11.8137973 Z M21.1412,144.887997 L27.6338,152.493997 L30.0711,150.412997 L30.8451,147.303997 L21.1412,144.887997 Z M20.4307,145.494997 L26.9233,153.100997 L26.9233,153.100997 L20.4307,145.494997 Z M0,175.813997 L-9.48686,172.651997 L-14.72394,188.362997 L1.6187,185.681997 L0,175.813997 Z M314,175.813997 L312.381,185.681997 L328.724,188.362997 L323.487,172.651997 L314,175.813997 Z M293.569,145.494997 L287.077,153.100997 L287.077,153.100997 L293.569,145.494997 Z M292.865,144.893997 L283.161,147.308997 L283.935,150.418997 L286.373,152.499997 L292.865,144.893997 Z M182.55,41.1392973 L174.27,35.5317973 L165.691,48.1993973 L180.736,50.9734973 L182.55,41.1392973 Z M188.157,3.23138728 L178.705,6.49487728 L178.705,6.49487728 L188.157,3.23138728 Z M182.324,0.164957279 L184.854,9.83959728 L184.854,9.83959728 L182.324,0.164957279 Z M160,11.8137973 L150.088,13.1354973 L152.494,31.1790973 L166.432,19.4708973 L160,11.8137973 Z M157.446,4.98244728 L165.962,-0.259222721 L165.962,-0.259222721 L157.446,4.98244728 Z M147.81,5.19058728 L154.709,12.4298973 L154.709,12.4298973 L147.81,5.19058728 Z M297,179.714997 L287,179.714997 L307,179.777997 L297,179.714997 Z M297,177.912997 L307,177.849997 L287,177.912997 L297,177.912997 Z M129.644,46.2726973 C132.32,35.9409973 137.355,25.6346973 145.312,19.9511973 L133.688,3.67650728 C120.131,13.3599973 113.437,29.0799973 110.283,41.2587973 L129.644,46.2726973 Z M30.8451,147.303997 C42.171,101.798997 77.5038,65.7518973 122.603,53.4111973 L117.324,34.1202973 C65.2614,48.3665973 24.5144,89.9325973 11.4373,142.472997 L30.8451,147.303997 Z M26.9233,153.100997 L27.6338,152.493997 L14.6485,137.282997 L13.938,137.888997 L26.9233,153.100997 Z M9.4868,178.975997 C12.837,168.924997 18.8656,159.978997 26.9233,153.100997 L13.938,137.888997 C3.113,147.129997 -4.986,159.148997 -9.48686,172.651997 L9.4868,178.975997 Z M157,155.813997 C108.637,155.813997 69.0795,158.331997 41.5716,160.855997 C27.8162,162.117997 17.0698,163.381997 9.7373,164.334997 C6.0709,164.810997 3.2577,165.209997 1.3483,165.490997 C0.3935,165.631997 -0.3353,165.742997 -0.8319,165.820997 C-1.0802,165.859997 -1.2705,165.889997 -1.4019,165.910997 C-1.4676,165.920997 -1.5186,165.928997 -1.5548,165.934997 C-1.5729,165.937997 -1.5872,165.940997 -1.5979,165.941997 C-1.6033,165.942997 -1.6077,165.943997 -1.6111,165.943997 C-1.6129,165.944997 -1.61580026,165.944997 -1.61580026,165.944997 C-1.61580026,165.944997 -1.6188,165.945997 7.10542736e-15,175.813997 C1.6187,185.681997 1.6177,185.681997 1.617,185.681997 C1.6171,185.681997 1.6165,185.681997 1.6167,185.681997 C1.6169,185.681997 1.6181,185.681997 1.6202,185.681997 C1.6243,185.680997 1.6322,185.679997 1.6438,185.677997 C1.667,185.673997 1.7049,185.667997 1.7574,185.659997 C1.8626,185.642997 2.0264,185.616997 2.248,185.581997 C2.6913,185.512997 3.3659,185.409997 4.2657,185.276997 C6.0652,185.011997 8.7648,184.628997 12.3141,184.167997 C19.4131,183.245997 29.9093,182.009997 43.3991,180.771997 C70.3814,178.295997 109.324,175.813997 157,175.813997 L157,155.813997 Z M314,175.813997 C315.619,165.945997 315.616052,165.944997 315.616052,165.944997 C315.616052,165.944997 315.613,165.944997 315.611,165.943997 C315.608,165.943997 315.603,165.942997 315.598,165.941997 C315.587,165.940997 315.573,165.937997 315.555,165.934997 C315.519,165.928997 315.468,165.920997 315.402,165.910997 C315.27,165.889997 315.08,165.859997 314.832,165.820997 C314.335,165.742997 313.606,165.631997 312.652,165.490997 C310.742,165.209997 307.929,164.810997 304.263,164.334997 C296.93,163.381997 286.184,162.117997 272.428,160.855997 C244.92,158.331997 205.363,155.813997 157,155.813997 L157,175.813997 C204.676,175.813997 243.619,178.295997 270.601,180.771997 C284.091,182.009997 294.587,183.245997 301.686,184.167997 C305.235,184.628997 307.935,185.011997 309.734,185.276997 C310.634,185.409997 311.309,185.512997 311.752,185.581997 C311.974,185.616997 312.137,185.642997 312.243,185.659997 C312.295,185.667997 312.333,185.673997 312.356,185.677997 C312.368,185.679997 312.376,185.680997 312.38,185.681997 C312.382,185.681997 312.383,185.681997 312.383,185.681997 C312.383,185.681997 312.383,185.681997 312.383,185.681997 C312.382,185.681997 312.381,185.681997 314,175.813997 Z M287.077,153.100997 C295.134,159.978997 301.163,168.924997 304.513,178.975997 L323.487,172.651997 C318.986,159.148997 310.887,147.129997 300.062,137.888997 L287.077,153.100997 Z M286.373,152.499997 L287.077,153.100997 L300.062,137.888997 L299.358,137.287997 L286.373,152.499997 Z M180.736,50.9734973 C230.872,60.2175973 270.957,98.2639973 283.161,147.308997 L302.569,142.478997 C288.481,85.8656973 242.259,41.9801973 184.363,31.3049973 L180.736,50.9734973 Z M178.705,6.49487728 C180.967,13.0487973 181.859,24.3249973 174.27,35.5317973 L190.829,46.7466973 C202.667,29.2670973 201.472,11.1538973 197.61,-0.0320927214 L178.705,6.49487728 Z M184.854,9.83959728 C182.449,10.4683973 179.637,9.19589728 178.705,6.49485728 L197.61,-0.0320827214 C195.01,-7.56028272 187.139,-11.4305527 179.793,-9.50968272 L184.854,9.83959728 Z M166.432,19.4708973 C169.367,17.0056973 177.047,11.8812973 184.854,9.83959728 L179.793,-9.50969272 C168.213,-6.48123272 157.927,0.495477279 153.568,4.15679728 L166.432,19.4708973 Z M148.929,10.2240973 C149.623,11.3511973 149.983,12.3492973 150.088,13.1354973 L169.912,10.4921973 C169.341,6.20667728 167.691,2.54987728 165.962,-0.259202721 L148.929,10.2240973 Z M154.709,12.4298973 C154.564,12.5678973 154.326,12.7771973 153.636,12.8269973 C153.217,12.8570973 152.419,12.8306973 151.452,12.4052973 C150.403,11.9438973 149.505,11.1590973 148.929,10.2240973 L165.962,-0.259222721 C162.534,-5.82766272 156.76,-7.45004272 152.198,-7.12130272 C147.896,-6.81123272 143.853,-4.85250272 140.911,-2.04869442 L154.709,12.4298973 Z M145.047,20.1342973 C147.432,18.5442973 151.312,15.6667973 154.709,12.4298973 L140.911,-2.04871322 C138.557,0.194847279 135.645,2.36521728 133.953,3.49333728 L145.047,20.1342973 Z M287.003,178.813997 C287.003,179.092997 287.002,179.372997 287,179.651997 L307,179.777997 C307.002,179.456997 307.003,179.134997 307.003,178.813997 L287.003,178.813997 Z M287,177.975997 C287.002,178.254997 287.003,178.533997 287.003,178.813997 L307.003,178.813997 C307.003,178.491997 307.002,178.170997 307,177.849997 L287,177.975997 Z M307,179.714997 L307,177.912997 L287,177.912997 L287,179.714997 L307,179.714997 Z" id="形状" fill="#0E1B20" fill-rule="nonzero" mask="url(#mask-8)"></path>
                    </g>
                    <rect id="矩形" stroke="#0E1B20" stroke-width="7" fill="#0E1B20" fill-rule="nonzero" x="153.504" y="89.8144973" width="44" height="23"></rect>
                    <path d="M60.3033,106.507997 C58.4834,89.1938973 70.8398,73.6013973 88.1121,71.4164973 L123.835,66.8975973 C141.631,64.6465973 157.801,77.4604973 159.676,95.2996973 L160.788,105.875997 C162.663,123.714997 149.51,139.610997 131.635,141.108997 L95.7532,144.115997 C78.4041,145.569997 63.0758,132.887997 61.256,115.572997 L60.3033,106.507997 Z" id="路径" stroke="none" fill="#009853" fill-rule="nonzero"></path>
                    <path d="M80.758459,106.071247 C79.6794925,95.8062132 87.0052479,86.5618668 97.2454995,85.2665022 L118.424583,82.587376 C128.975321,81.2528226 138.562051,88.8498166 139.673685,99.426167 L140.332958,105.696552 C141.444591,116.272784 133.646555,125.697067 123.048979,126.585188 L101.775689,128.367952 C91.4899045,129.229987 82.4021948,121.711193 81.3232876,111.445625 L80.758459,106.071247 Z" id="路径" stroke="none" fill="#FFFFFF" fill-rule="nonzero"></path>
                    <path d="M123.395788,63.4252648 C142.940732,60.9530425 160.717794,74.8608303 163.089668,94.3416979 L163.156813,94.933722 L164.268826,105.510139 C166.328105,125.102395 152.047532,142.582019 132.520605,144.542138 L131.927286,144.596772 L96.0455046,147.60377 C76.9910889,149.20069 60.1343016,135.427216 57.840218,116.513525 L57.7751706,115.93882 L56.8224758,106.87387 C54.8237023,87.8580093 68.23887,70.7141839 87.0996638,68.0213336 L87.6728596,67.9441684 L123.395788,63.4252648 Z M156.195174,95.6655516 C154.54195,79.9363864 140.410579,68.5938219 124.749287,70.3137978 L124.274245,70.3699256 L88.5513404,74.8888262 C73.3220648,76.815289 62.3838148,90.445228 63.7392834,105.680033 L63.7841294,106.142174 L64.7368283,115.207164 C66.3413567,130.473902 79.737264,141.696901 94.9979099,140.663304 L95.4609143,140.628223 L131.34271,137.621223 C147.103506,136.300403 158.742378,122.41149 157.353277,106.718072 L157.307187,106.241973 L156.195174,95.6655516 Z M145.218304,96.4878439 L145.255849,96.8156612 L146.366791,107.391809 C147.381672,117.038741 140.35826,125.647682 130.749157,126.629572 L130.424283,126.659772 L94.5421487,129.666775 C85.1633903,130.452642 76.864664,123.684941 75.7138078,114.383316 L75.6765706,114.05782 L74.7238741,104.992853 C73.7400687,95.6327402 80.3316623,87.1928982 89.607113,85.845968 L89.9317562,85.8018688 L125.654807,81.2829624 C135.168238,80.079671 143.831678,86.7485223 145.174897,96.1621558 L145.218304,96.4878439 Z M126.815315,88.1957374 L126.533244,88.2276257 L90.810245,92.7465256 C85.2372356,93.451504 81.2239702,98.410415 81.659534,103.977591 L81.6855294,104.261174 L82.6382249,113.326132 C83.2254004,118.912484 88.0983529,123.029115 93.6735446,122.711223 L93.9576167,122.691223 L129.839864,119.68421 C135.610158,119.200893 139.881274,114.143731 139.431111,108.406332 L139.405151,108.123633 L138.294206,97.5474526 C137.698278,91.8823639 132.710117,87.7620064 127.0965,88.1714753 L126.815315,88.1957374 Z" id="形状" stroke="none" fill="#0E1B20" fill-rule="nonzero"></path>
                    <path d="M289.756,115.573997 C287.937,132.887997 272.608,145.570997 255.259,144.116997 L219.377,141.109997 C201.502,139.611997 188.35,123.715997 190.225,105.876997 L191.336,95.3001973 C193.211,77.4609973 209.381,64.6469973 227.177,66.8980973 L262.9,71.4169973 C280.173,73.6018973 292.529,89.1943973 290.709,106.508997 L289.756,115.573997 Z" id="路径" stroke="none" fill="#009853" fill-rule="nonzero"></path>
                    <path d="M269.688787,111.446478 C268.610361,121.711385 259.522296,129.230723 249.236639,128.368693 L227.96337,126.585941 C217.365865,125.697826 209.568472,116.273605 210.680099,105.697443 L211.338774,99.4268028 C212.450401,88.8505222 222.037067,81.253519 232.587736,82.5881229 L253.766739,85.2672315 C264.007338,86.5625875 271.332808,95.8068729 270.253789,106.072135 L269.688787,111.446478 Z" id="路径" stroke="none" fill="#FFFFFF" fill-rule="nonzero"></path>
                    <path d="M187.855174,94.9343429 C189.914457,75.3418322 207.516702,61.213332 227.024528,63.3558524 L227.616244,63.4257688 L263.339223,67.9446662 C282.30961,70.3442725 295.934205,87.3218529 294.245682,106.299262 L294.189817,106.874934 L293.236843,115.939693 C291.239063,134.955393 274.551992,148.935892 255.543431,147.648468 L254.966716,147.604772 L219.08471,144.597771 C199.453097,142.95256 184.956415,125.652555 186.686761,106.104188 L186.744174,105.511139 L187.855174,94.9343429 Z M226.737769,70.3704273 C211.046703,68.3855904 196.774927,79.5510629 194.870755,95.1905457 L194.816849,95.66583 L193.705826,106.242856 C192.052588,121.971983 203.516599,136.004764 219.192963,137.578363 L219.669284,137.622223 L255.551306,140.629225 C270.848328,141.911251 284.381914,130.852958 286.222982,115.669422 L286.275183,115.20806 L287.228177,106.143115 C288.832921,90.876351 278.06327,77.1131332 262.920945,74.9512751 L262.460756,74.8893257 L226.737769,70.3704273 Z M225.029532,81.2450874 L225.357244,81.2834688 L261.080222,85.8023661 C270.417628,86.9834731 277.128155,95.329114 276.320064,104.666808 L276.288817,104.992934 L275.335834,114.057772 C274.352249,123.417898 266.14988,130.302962 256.796456,129.692128 L256.469716,129.667772 L220.587422,126.660747 C210.921013,125.849856 203.780344,117.340356 204.614056,107.716823 L204.645187,107.392022 L205.75716,96.8159785 C206.759141,87.2793178 215.231368,80.3688177 224.702553,81.2128997 L225.029532,81.2450874 Z M212.752242,97.2654858 L212.718813,97.5476726 L211.606842,108.123698 C211.001754,113.883103 215.169356,119.024808 220.889717,119.657747 L221.172284,119.685223 L257.054218,122.692217 C262.652631,123.161272 267.609315,119.145018 268.340655,113.608856 L268.374183,113.32606 L269.327167,104.261208 C269.914218,98.6748554 266.003405,93.6346528 260.483787,92.7865205 L260.201756,92.7470257 L224.478807,88.2281322 C218.827664,87.5133562 213.676683,91.4278637 212.792859,96.9862123 L212.752242,97.2654858 Z" id="形状" stroke="none" fill="#0E1B20" fill-rule="nonzero"></path>
                    <path d="M175.543,205.824997 L170.043,205.824997 C165.876,205.657997 157.543,207.224997 157.543,214.824997 C157.71,217.657997 160.643,224.424997 171.043,228.824997 C171.876,229.158997 173.943,229.824997 175.543,229.824997 C177.143,229.824997 179.21,229.158997 180.043,228.824997 C190.443,224.424997 193.376,217.657997 193.543,214.824997 C193.543,207.224997 185.21,205.657997 181.043,205.824997 L175.543,205.824997 Z" id="路径" stroke="none" fill="#0E1B20" fill-rule="evenodd"></path>
                    <path d="M141.543,236.649997 C144.182,241.036997 152.255,249.811997 163.433,249.811997 C166.538,249.973997 173.307,248.738997 175.543,242.499997 L175.543,229.824997" id="路径" stroke="#0E1B20" stroke-width="8" fill="none" stroke-linecap="round"></path>
                    <path d="M209.543,236.649997 C206.904,241.036997 198.831,249.811997 187.653,249.811997 C184.548,249.973997 177.779,248.738997 175.543,242.499997 L175.543,229.824997" id="路径" stroke="#0E1B20" stroke-width="8" fill="none" stroke-linecap="round"></path>
                    <g id="Clipped" stroke="none" stroke-width="1" fill="none" fill-rule="evenodd" transform="translate(364.500000, 55.999997)">
                        <mask id="mask-10" fill="white">
                            <use xlink:href="#path-9"></use>
                        </mask>
                        <g id="矩形"></g>
                        <g id="编组" mask="url(#mask-10)">
                            <g transform="translate(28.809000, 21.129881)" id="形状">
                                <path d="M423.783,4.83801902 C433.823,-2.95768098 448.28,-1.13898098 456.077,8.90011902 L502.466,74.074119 L548.857,8.90011902 C556.652,-1.13898098 571.11,-2.95768098 581.15,4.83801902 C587.038,9.41041902 590.099,16.274519 590.048,23.195119 C590.109,23.870119 590.139,24.553119 590.139,25.244119 L590.139,169.084119 C590.139,181.795119 579.835,192.099119 567.125,192.099119 C554.414,192.099119 544.111,181.795119 544.111,169.084119 L544.111,90.060119 L520.919,125.357119 C516.327,131.273119 509.42,134.334119 502.466,134.256119 C495.513,134.334119 488.606,131.273119 484.013,125.357119 L460.261,89.337119 L460.261,169.084119 C460.261,181.795119 449.957,192.099119 437.247,192.099119 C424.536,192.099119 414.232,181.795119 414.232,169.084119 L414.232,25.244119 C414.232,22.573119 414.688,20.007519 415.526,17.622019 C416.703,12.720319 419.492,8.17051902 423.783,4.83801902 Z M97.795,48.258119 L97.795,169.084119 C97.795,181.795119 87.491,192.099119 74.78,192.099119 C62.07,192.099119 51.766,181.795119 51.766,169.084119 L51.766,48.258119 L23.014,48.258119 C10.303,48.258119 0,37.955119 0,25.244119 C0,12.533619 10.304,2.22971902 23.014,2.22971902 L51.766,2.22971902 L97.795,2.22971902 L151.491,2.22971902 L197.519,2.22971902 L245.486,2.22971902 C258.197,2.22971902 268.5,12.533619 268.5,25.244119 C268.5,37.955119 258.197,48.258119 245.486,48.258119 L197.519,48.258119 L197.519,73.190119 L245.465,73.190119 C258.176,73.190119 268.481,83.494119 268.481,96.204119 C268.481,108.915119 258.176,119.219119 245.465,119.219119 L197.519,119.219119 L197.519,146.070119 L245.465,146.070119 C258.176,146.070119 268.481,156.374119 268.481,169.084119 C268.481,181.795119 258.176,192.099119 245.465,192.099119 L197.519,192.099119 L174.505,192.099119 C161.794,192.099119 151.491,181.795119 151.491,169.084119 L151.491,48.258119 L97.795,48.258119 Z M332.589,2.22971902 C331.6,2.22971902 330.409,2.22971902 329.667,2.22971902 C328.925,2.22971902 306.653,2.22971902 306.653,2.22971902 C293.943,2.22971902 283.639,12.533619 283.639,25.244119 L283.639,169.084119 C283.639,181.795119 293.943,192.099119 306.653,192.099119 L329.667,192.099119 L377.66,192.099119 C390.37,192.099119 400.674,181.795119 400.674,169.084119 C400.674,156.374119 390.37,146.070119 377.66,146.070119 L329.667,146.070119 L329.667,119.219119 L377.66,119.219119 C390.37,119.219119 400.674,108.915119 400.674,96.204119 C400.674,83.494119 390.37,73.190119 377.66,73.190119 L329.667,73.190119 L329.667,48.075119 C330.625,48.196119 331.6,48.258119 332.589,48.258119 L377.66,48.258119 C390.37,48.258119 400.674,37.955119 400.674,25.244119 C400.674,12.533619 390.37,2.22971902 377.66,2.22971902 L332.589,2.22971902 Z" fill="#0E1B20"></path>
                                <path d="M683.031,2.23051902 C729.691,2.23051902 767.521,44.090119 767.521,95.726119 C767.521,147.363119 729.691,189.223119 683.031,189.223119 C636.381,189.223119 598.554,147.363119 598.554,95.726119 C598.554,44.090119 636.381,2.23051902 683.031,2.23051902 Z M683.031,48.259119 C663.831,48.259119 644.581,67.198119 644.581,95.726119 C644.581,124.255119 663.831,143.194119 683.031,143.194119 C702.241,143.194119 721.491,124.255119 721.491,95.726119 C721.491,67.198119 702.241,48.259119 683.031,48.259119 Z" fill="#0E1B20"></path>
                                <path d="M1044.651,2.22651902 C1052.50082,2.22651902 1059.80047,6.22851446 1064.02751,12.8234466 L1064.251,13.179219 L1091.841,58.020119 L1119.441,13.179219 C1123.55749,6.4921313 1130.79164,2.37281853 1138.62101,2.23033944 L1139.041,2.22651902 L1147.471,2.22651902 C1162.3309,2.22651902 1171.48662,18.3512222 1164.0417,31.0726821 L1163.811,31.457119 L1114.851,111.016119 L1114.851,169.085119 C1114.851,181.796119 1104.541,192.099119 1091.831,192.099119 C1079.2481,192.099119 1069.02724,182.001149 1068.82408,169.465719 L1068.821,169.085119 L1068.821,110.986119 L1019.881,31.457119 C1012.0897,18.806404 1021.02871,2.55519366 1035.76275,2.23143452 L1036.211,2.22651902 L1044.651,2.22651902 Z M844.521,2.22651902 C881.321,2.22651902 911.161,32.065119 911.161,68.872119 C911.161,105.680119 881.321,135.518119 844.521,135.518119 L824.471,135.518119 L824.471,169.081119 C824.471,181.792119 814.171,192.096119 801.461,192.096119 C788.751,192.096119 778.441,181.792119 778.441,169.081119 L778.441,25.083119 C778.5301,12.5714 788.596618,2.43113098 801.081925,2.22957677 L801.461,2.22651902 L844.521,2.22651902 Z M975.231,2.22651902 L975.231,2.25911902 C983.741,2.72651902 991.231,8.18451902 994.241,16.237419 L1049.081,162.990119 C1054.351,177.080119 1043.931,192.096119 1028.891,192.096119 C1019.891,192.096119 1011.841,186.511119 1008.701,178.085119 L1000.741,156.808119 L936.621,156.808119 L928.661,178.085119 C925.521,186.511119 917.471,192.096119 908.471,192.096119 C893.431,192.096119 883.011,177.080119 888.281,162.990119 L943.121,16.237419 C946.191,8.04521902 953.881,2.53851902 962.571,2.23941902 L962.571,2.22651902 L975.231,2.22651902 Z M968.681,71.018119 L953.821,110.779119 L983.541,110.779119 L968.681,71.018119 Z M844.521,48.255119 L824.471,48.255119 L824.471,89.490119 L844.521,89.490119 C855.901,89.490119 865.131,80.259119 865.131,68.872119 C865.131,57.6023027 856.088406,48.4437312 844.868688,48.257995 L844.521,48.255119 Z" fill="#009853"></path>
                            </g>
                        </g>
                    </g>
                </g>
            </g>
        </g>
    </g>
</svg>